<?xml version="1.0" encoding="utf-8"?>
<!-- Generator: Adobe Illustrator 15.0.0, SVG Export Plug-In . SVG Version: 6.00 Build 0)  -->
<!DOCTYPE svg PUBLIC "-//W3C//DTD SVG 1.1//EN" "http://www.w3.org/Graphics/SVG/1.1/DTD/svg11.dtd">
<svg version="1.1" id="Layer_1" xmlns="http://www.w3.org/2000/svg" xmlns:xlink="http://www.w3.org/1999/xlink" x="0px" y="0px"
	 width="100px" height="100px" viewBox="0 0 100 100" enable-background="new 0 0 100 100" xml:space="preserve">
<path fill="none" stroke="#000000" d="M1.845,38.185C2.7,27.7,12.731,28.912,17.104,31.645s10.88,10.943,17.438,10.899
	s-0.778-8.632,1.09-17.438s9.306,8.928,13.187,3.161S31.223,15.456,43.261,6.578s26.25,27.734,30.719,31.67s9.794-2.26,15.057,4.296
	S65.061,64.342,65.061,64.342s34.73,8.078,33.785,19.618s-39.385,9.197-46.865,3.269S49.859,76.66,42.28,72.08
	S12.41,95.999,6.205,85.05s7.053-10.83,8.174-19.29S0.99,48.67,1.845,38.185z"/>
</svg>
