<?xml version="1.0" encoding="utf-8"?>
<!-- Generator: Adobe Illustrator 15.0.0, SVG Export Plug-In . SVG Version: 6.00 Build 0)  -->
<!DOCTYPE svg PUBLIC "-//W3C//DTD SVG 1.1//EN" "http://www.w3.org/Graphics/SVG/1.1/DTD/svg11.dtd">
<svg version="1.1" id="Layer_1" xmlns="http://www.w3.org/2000/svg" xmlns:xlink="http://www.w3.org/1999/xlink" x="0px" y="0px"
	 width="100px" height="100px" viewBox="0 0 100 100" enable-background="new 0 0 100 100" xml:space="preserve">
<path fill="none" stroke="#000000" d="M31.335,60.838C34.1,51.9-1.521,26.179,2.258,15.886s19.087,12.124,21.864,7.269
	S0.428,6.054,6.364,3.027s26.455-0.891,33.295,5.591s-0.723,14.191,6.659,14.537s23.806-17.165,25.194-8.61
	s-10.738,9.939-3.775,12.747S96.957,0.608,98.479,10.854s-7.996,11.3-9.987,16.773s6.314,50.326-6.658,49.2
	S66.391,56.846,60.745,61.173s29.961,32.735,17.758,35.781S53.42,75.788,47.76,76.044S39.9,87.281,33,86.891
	S26.57,75.239,22.235,76.27S11.849,89.098,7.474,81.299S28.57,69.775,31.335,60.838z"/>
</svg>
