<?xml version="1.0" encoding="utf-8"?>
<!-- Generator: Adobe Illustrator 15.0.0, SVG Export Plug-In . SVG Version: 6.00 Build 0)  -->
<!DOCTYPE svg PUBLIC "-//W3C//DTD SVG 1.1//EN" "http://www.w3.org/Graphics/SVG/1.1/DTD/svg11.dtd">
<svg version="1.1" id="Layer_1" xmlns="http://www.w3.org/2000/svg" xmlns:xlink="http://www.w3.org/1999/xlink" x="0px" y="0px"
	 width="100px" height="100px" viewBox="0 0 100 100" enable-background="new 0 0 100 100" xml:space="preserve">
<path fill="none" stroke="#000000" d="M3.087,46.479C0,38.5,20.584,33.736,23.042,28.418s-6.808-2.594-5.875-12.156
	S41.934,6.7,49.317,7s4.852,2.718,11.417,9.609s25.037-12.963,29.602-6.136s-11.755,5.296-12.195,9.262s18.532,0.843,18.846,8.104
	s-28.96,3.146-28.823,8.104s13.19-1.125,21.063,2.316s-9.903,57.534-27.715,57.888s-18.396-26.873-13.304-31.26
	s18.646,0.861,18.069-7.062s-25.585-16.49-32.481-18.407S6.174,54.458,3.087,46.479z"/>
</svg>
