<?xml version="1.0" encoding="utf-8"?>
<!-- Generator: Adobe Illustrator 15.0.0, SVG Export Plug-In . SVG Version: 6.00 Build 0)  -->
<!DOCTYPE svg PUBLIC "-//W3C//DTD SVG 1.1//EN" "http://www.w3.org/Graphics/SVG/1.1/DTD/svg11.dtd">
<svg version="1.1" id="Layer_1" xmlns="http://www.w3.org/2000/svg" xmlns:xlink="http://www.w3.org/1999/xlink" x="0px" y="0px"
	 width="100px" height="100px" viewBox="0 0 100 100" enable-background="new 0 0 100 100" xml:space="preserve">
<path fill="none" stroke="#000000" d="M36.994,48.811C36.1,40.5,2.422,14.521,2.461,8.111S15.69,1.19,25.895,5.645
	s27.794,45.945,37,44.4S61.355,1.722,78.928,4.411s10.161,54.045,13.566,57.967s6.328,0.812,6.167,6.167s-4.504,3.777-4.933,9.866
	s6.428,10.311,3.699,14.8s-9.936,9.979-12.332-2.466S75.023,58.056,65.361,58.678s-19.005,33.378-27.133,25.9
	s11.728-15.054,7.4-17.266s-35.206,19.81-39.467,7.398S37.889,57.122,36.994,48.811z"/>
</svg>
