<?xml version="1.0" encoding="utf-8"?>
<!-- Generator: Adobe Illustrator 15.0.0, SVG Export Plug-In . SVG Version: 6.00 Build 0)  -->
<!DOCTYPE svg PUBLIC "-//W3C//DTD SVG 1.1//EN" "http://www.w3.org/Graphics/SVG/1.1/DTD/svg11.dtd">
<svg version="1.1" id="Layer_1" xmlns="http://www.w3.org/2000/svg" xmlns:xlink="http://www.w3.org/1999/xlink" x="0px" y="0px"
	 width="100px" height="100px" viewBox="0 0 100 100" enable-background="new 0 0 100 100" xml:space="preserve">
<path fill="none" stroke="#000000" d="M1.64,12.317C5.7-2.7,34.22,18.872,40.56,19.186S66.632-2.356,70.666,1.672
	s-1.961,17.8,4.236,17.514S89.514-4.312,95.507,6.594S59.699,31.702,64.6,37.501s24.336-9.155,28.618-4.578
	s8.096,12.562,2.289,17.17s-18.29-9.151-20.948-0.172s16.324,27.872,2.633,32.226S67.31,67.125,58.305,70.812
	s-21.846,31.631-32.625,27.359s24.058-41.086,24.04-48.079C49.7,43.1,47.442,39.682,38.271,39.791S-2.42,27.333,1.64,12.317z"/>
</svg>
