<?xml version="1.0" encoding="utf-8"?>
<!-- Generator: Adobe Illustrator 15.0.0, SVG Export Plug-In . SVG Version: 6.00 Build 0)  -->
<!DOCTYPE svg PUBLIC "-//W3C//DTD SVG 1.1//EN" "http://www.w3.org/Graphics/SVG/1.1/DTD/svg11.dtd">
<svg version="1.1" id="Layer_1" xmlns="http://www.w3.org/2000/svg" xmlns:xlink="http://www.w3.org/1999/xlink" x="0px" y="0px"
	 width="100px" height="100px" viewBox="0 0 100 100" enable-background="new 0 0 100 100" xml:space="preserve">
<path fill="none" stroke="#000000" d="M4.827,35.479c-0.938-7.379,11.467-3.683,11.964-8.331S-2.56,21.094,1.564,9.297
	S22.561,23.3,27.125,18.7S30.054,1.526,38.871,7.513s10.866,28.333,22.842,21.66S79.989-5.834,94.9,3.9s-21.723,39.163-1.062,41.082
	S64.952,100.032,49.42,97.366s7.62-38.547,0.544-40.106S32.322,93.953,24.405,90.227S40.008,61.801,37.348,58.45
	s-7.875,8.428-10.768,5.593s13.067-24.258,7.288-26.301S26.58,64.043,20.816,63.688c-5.128-0.188,1.821-18.916-0.653-22.852
	S5.766,42.858,4.827,35.479z"/>
</svg>
