<?xml version="1.0" encoding="utf-8"?>
<!-- Generator: Adobe Illustrator 15.0.0, SVG Export Plug-In . SVG Version: 6.00 Build 0)  -->
<!DOCTYPE svg PUBLIC "-//W3C//DTD SVG 1.1//EN" "http://www.w3.org/Graphics/SVG/1.1/DTD/svg11.dtd">
<svg version="1.1" id="Layer_1" xmlns="http://www.w3.org/2000/svg" xmlns:xlink="http://www.w3.org/1999/xlink" x="0px" y="0px"
	 width="100px" height="100px" viewBox="0 0 100 100" enable-background="new 0 0 100 100" xml:space="preserve">
<path fill="none" stroke="#000000" d="M33.897,24.882C35.7,17.7-0.922,5.588,11.289,2.044s58.853,1.81,62.932,5.333
	s-9.129,12.909-6.125,16.816S85.154,9.74,89.327,13.52s-8.039,8.268-8.033,12.624s12.632-4.176,14.919,4.59
	S73.707,53.806,73.604,62.753s26.838,27.156,16.067,33.052S57.772,84.253,50.136,85.477s-17.59,15.11-30.813,12.967
	s-7.777-15.553,0-25.248s28.687-7.161,25.132-17.328S9.42,67.045,4.06,53.572C-1.3,40.1,32.094,32.063,33.897,24.882z"/>
</svg>
