<?xml version="1.0" encoding="utf-8"?>
<!-- Generator: Adobe Illustrator 15.0.0, SVG Export Plug-In . SVG Version: 6.00 Build 0)  -->
<!DOCTYPE svg PUBLIC "-//W3C//DTD SVG 1.1//EN" "http://www.w3.org/Graphics/SVG/1.1/DTD/svg11.dtd">
<svg version="1.1" id="Layer_1" xmlns="http://www.w3.org/2000/svg" xmlns:xlink="http://www.w3.org/1999/xlink" x="0px" y="0px"
	 width="100px" height="100px" viewBox="0 0 100 100" enable-background="new 0 0 100 100" xml:space="preserve">
<path fill="none" stroke="#000000" d="M2.993,16.96C7.5,4.7,35.2,19.5,42.25,16S53.316,1.144,63.208,3.822
	s-8.281,18.148-1.095,18.613S93.393-7.876,97.146,6.012S65.748,44.406,70.324,50.353s7.383-4.233,14.779-1.643
	s19.974,48.747,3.285,49.269S51.134,82.39,40.217,83.745s-15.465,12.73-22.991,12.043S6.844,93.22,7.372,80.46
	s20.054-9.295,22.991-15.327s-7.884,0.305-5.474-7.664s21.403-4.255,19.707-13.412S-1.514,29.22,2.993,16.96z"/>
</svg>
