<?xml version="1.0" encoding="utf-8"?>
<!-- Generator: Adobe Illustrator 15.0.0, SVG Export Plug-In . SVG Version: 6.00 Build 0)  -->
<!DOCTYPE svg PUBLIC "-//W3C//DTD SVG 1.1//EN" "http://www.w3.org/Graphics/SVG/1.1/DTD/svg11.dtd">
<svg version="1.1" id="Layer_1" xmlns="http://www.w3.org/2000/svg" xmlns:xlink="http://www.w3.org/1999/xlink" x="0px" y="0px"
	 width="100px" height="100px" viewBox="0 0 100 100" enable-background="new 0 0 100 100" xml:space="preserve">
<path fill="none" stroke="#000000" d="M21.471,55.98C25.1,51.5,4.16,44.954,12.63,34.727S41.031,47.14,41.031,47.14
	S85.239-6.9,97.27,2S57.097,43.294,58.898,49.397s12.684-16.815,21.442-10.156s-18.786,13.68-20.313,22.569
	s35.838,13.725,25.955,25.957s-45.652,5.091-54.167,4.512s-2.984-6.005-3.95-9.592s-8.706,3.918-15.235,0.565
	S24.732,75.92,23.916,69.71s-16.71,9.926-20.313,2.258S17.842,60.461,21.471,55.98z"/>
</svg>
