<?xml version="1.0" encoding="utf-8"?>
<!-- Generator: Adobe Illustrator 15.0.0, SVG Export Plug-In . SVG Version: 6.00 Build 0)  -->
<!DOCTYPE svg PUBLIC "-//W3C//DTD SVG 1.1//EN" "http://www.w3.org/Graphics/SVG/1.1/DTD/svg11.dtd">
<svg version="1.1" id="Layer_1" xmlns="http://www.w3.org/2000/svg" xmlns:xlink="http://www.w3.org/1999/xlink" x="0px" y="0px"
	 width="100px" height="100px" viewBox="0 0 100 100" enable-background="new 0 0 100 100" xml:space="preserve">
<path fill="none" stroke="#000000" d="M12.966,43.96C12.1,32.3,27.05,42.31,33.875,33.505S6.62,22.222,20.06,8.861
	s23.077,9.205,30.058,9.522S47.498,1.862,60.199,1.581s8.138,32.637,10.619,42.478S87.92,48.823,89.51,60.762
	s-7.766,7.196-11.388,10.268s11.062,12.495,1.12,21.283S59.814,59.196,52.357,60.948C44.9,62.7,52.25,100.326,31.075,97.913
	C9.9,95.5,39.734,78.237,38.917,67.669S13.832,55.619,12.966,43.96z"/>
</svg>
