<?xml version="1.0" encoding="utf-8"?>
<!-- Generator: Adobe Illustrator 15.0.0, SVG Export Plug-In . SVG Version: 6.00 Build 0)  -->
<!DOCTYPE svg PUBLIC "-//W3C//DTD SVG 1.1//EN" "http://www.w3.org/Graphics/SVG/1.1/DTD/svg11.dtd">
<svg version="1.1" id="Layer_1" xmlns="http://www.w3.org/2000/svg" xmlns:xlink="http://www.w3.org/1999/xlink" x="0px" y="0px"
	 width="100px" height="100px" viewBox="0 0 100 100" enable-background="new 0 0 100 100" xml:space="preserve">
<path fill="none" stroke="#000000" d="M17.002,64.602c0.099-6.9,20.314,1.463,24.806-0.119S55.543-0.5,70.021,1
	s-10.433,41.695-5.877,43.498s9.663-25.077,18.81-22.337s-3.103,15.081-5.878,18.81s21.797,24.253,18.811,34.091
	s-31.649,0.618-32.918,3.528s8.968,13.206,2.35,16.458s-5.574-17.673-10.696-16.811C49.5,79.101,53.5,89.801,50,94.9
	c-3.5,5.1-39.5,6.399-42.1-4s49.176-19.333,44.488-24.066c-4.688-4.733-12.388,1.34-22.338,4.703S16.903,71.502,17.002,64.602z"/>
</svg>
