<?xml version="1.0" encoding="utf-8"?>
<!-- Generator: Adobe Illustrator 15.0.0, SVG Export Plug-In . SVG Version: 6.00 Build 0)  -->
<!DOCTYPE svg PUBLIC "-//W3C//DTD SVG 1.1//EN" "http://www.w3.org/Graphics/SVG/1.1/DTD/svg11.dtd">
<svg version="1.1" id="Layer_1" xmlns="http://www.w3.org/2000/svg" xmlns:xlink="http://www.w3.org/1999/xlink" x="0px" y="0px"
	 width="100px" height="100px" viewBox="0 0 100 100" enable-background="new 0 0 100 100" xml:space="preserve">
<path fill="none" stroke="#000000" d="M27.408,31.162C23.3,25.7,0.246,21.112,3.473,11.306S71.74,16.534,74.42,21.717
	s-13.545,9.872-10.732,15.027S98,15.258,99,28.479S67.1,41.804,66.8,45.652s21.85-5.955,17.175,2.147s-9.58,2.484-15.027,4.293
	s-3.87,37.344-12.559,37.676s-0.891-8.924-5.689-13.096C45.9,72.5,19.108,85.877,17.104,78.389s10.472-4.262,10.734-9.875
	S4.8,75.088,2.4,65.294s16.306-3.983,22.003-10.089C30.1,49.1,31.517,36.624,27.408,31.162z"/>
</svg>
