<?xml version="1.0" encoding="utf-8"?>
<!-- Generator: Adobe Illustrator 15.0.0, SVG Export Plug-In . SVG Version: 6.00 Build 0)  -->
<!DOCTYPE svg PUBLIC "-//W3C//DTD SVG 1.1//EN" "http://www.w3.org/Graphics/SVG/1.1/DTD/svg11.dtd">
<svg version="1.1" id="Layer_1" xmlns="http://www.w3.org/2000/svg" xmlns:xlink="http://www.w3.org/1999/xlink" x="0px" y="0px"
	 width="100px" height="100px" viewBox="0 0 100 100" enable-background="new 0 0 100 100" xml:space="preserve">
<path fill="none" stroke="#000000" d="M26.257,17.99C34.9,9.7,49.626,35.994,54.963,33.447S49.051,1.96,58.275,1.43
	s1.251,20.504,7.838,21.087S67.561,6.176,73.73,3.638s17.895,1.026,22.082,12.144s-32.44,37.005-20.977,44.161
	s29.602,24.685,22.633,35.221S75.428,75.822,68.764,78.161s5.319,21.7-6.072,19.319s-7.348-33.044-18.77-30.912
	S5.036,106.261,1.968,97.48S9.773,77.701,20.737,75.4S10.53,63.201,12.015,53.65c1.485-9.55,12.093,5.475,18.989,0.662
	S17.614,26.28,26.257,17.99z"/>
</svg>
