<?xml version="1.0" encoding="utf-8"?>
<!-- Generator: Adobe Illustrator 15.0.0, SVG Export Plug-In . SVG Version: 6.00 Build 0)  -->
<!DOCTYPE svg PUBLIC "-//W3C//DTD SVG 1.1//EN" "http://www.w3.org/Graphics/SVG/1.1/DTD/svg11.dtd">
<svg version="1.1" id="Layer_1" xmlns="http://www.w3.org/2000/svg" xmlns:xlink="http://www.w3.org/1999/xlink" x="0px" y="0px"
	 width="100px" height="100px" viewBox="0 0 100 100" enable-background="new 0 0 100 100" xml:space="preserve">
<path fill="none" stroke="#000000" d="M22.542,50.863c0.958-7.197-17.153-20.688-9.764-28.692s4.287,7.608,12.504,8.885
	S43.389,9.797,49.778,7.732s-8.205,21.42,3.425,21.844S50.613,6.58,60.057,3.29S88.667,1.3,95,4.4s1.223,15.104-5.139,24.435
	S74.28,30.546,69.307,43.273S92.11,72.347,81.639,83.257S52.611,57.571,47.722,60.119c-4.889,2.548-5.426,39.96-18.157,36.837
	S47.167,61.37,39.5,56.602S9,111.227,2.5,94.363S21.584,58.061,22.542,50.863z"/>
</svg>
