<?xml version="1.0" encoding="utf-8"?>
<!-- Generator: Adobe Illustrator 15.0.0, SVG Export Plug-In . SVG Version: 6.00 Build 0)  -->
<!DOCTYPE svg PUBLIC "-//W3C//DTD SVG 1.1//EN" "http://www.w3.org/Graphics/SVG/1.1/DTD/svg11.dtd">
<svg version="1.1" id="Layer_1" xmlns="http://www.w3.org/2000/svg" xmlns:xlink="http://www.w3.org/1999/xlink" x="0px" y="0px"
	 width="100px" height="100px" viewBox="0 0 100 100" enable-background="new 0 0 100 100" xml:space="preserve">
<path fill="none" stroke="#000000" d="M7.416,48.568c5.636-5.901,24.912,5.449,26.728-3.476C35.959,36.167-2.928,6.415,11.87,4.541
	c14.798-1.874,24.761,33.541,31.554,28S32.113,14.674,38.041,9.754c5.928-4.92,25.372-8.808,41.763-7.531
	C96.195,3.5,103.13,88.055,92.054,90.277C80.976,92.5,71.106,55.717,64.026,66.525C56.945,77.334,78.167,79.938,78.69,86.803
	c0.522,6.864-44.851,13.585-61.252,3.475S1.78,54.469,7.416,48.568z"/>
</svg>
