<?xml version="1.0" encoding="utf-8"?>
<!-- Generator: Adobe Illustrator 15.0.0, SVG Export Plug-In . SVG Version: 6.00 Build 0)  -->
<!DOCTYPE svg PUBLIC "-//W3C//DTD SVG 1.1//EN" "http://www.w3.org/Graphics/SVG/1.1/DTD/svg11.dtd">
<svg version="1.1" id="Layer_1" xmlns="http://www.w3.org/2000/svg" xmlns:xlink="http://www.w3.org/1999/xlink" x="0px" y="0px"
	 width="100px" height="100px" viewBox="0 0 100 100" enable-background="new 0 0 100 100" xml:space="preserve">
<path fill="none" stroke="#000000" d="M23.748,23.207c6.952-1.106,3.482,11.304,11.417,11.799s1.497-24.16,11.416-27.533
	s4.057,23.387,9.134,23.6S48.112,9.69,63.706,10.095s-8.069,28.928-5.138,37.367s21.695-11.329,29.113-11.145
	s10.399,5.905,5.709,17.044s-14.395,6.483-14.843,13.111s23.979,2.904,19.065,15.866S65.811,66.69,56.855,69.096
	C47.9,71.501,31.428,91.444,21.464,90.072s-1.746-11.129-1.255-16.65S1.828,71.978,0.914,62.539s30.463-0.316,30.825-9.178
	c0.361-8.861-19.277,4.64-26.258-1.311S16.796,24.313,23.748,23.207z"/>
</svg>
