<?xml version="1.0" encoding="utf-8"?>
<!-- Generator: Adobe Illustrator 15.0.0, SVG Export Plug-In . SVG Version: 6.00 Build 0)  -->
<!DOCTYPE svg PUBLIC "-//W3C//DTD SVG 1.1//EN" "http://www.w3.org/Graphics/SVG/1.1/DTD/svg11.dtd">
<svg version="1.1" id="Layer_1" xmlns="http://www.w3.org/2000/svg" xmlns:xlink="http://www.w3.org/1999/xlink" x="0px" y="0px"
	 width="100px" height="100px" viewBox="0 0 100 100" enable-background="new 0 0 100 100" xml:space="preserve">
<path fill="none" stroke="#000000" d="M34.587,52.555c-10.253-0.721-0.82-47.944,10.63-47.833s5.308,17.281,10.629,21.613
	s9.321,4.304,13.996,1.418s-2.01-18.844,4.074-13.465s-4.205,12.048,3.189,10.63S79.348-2.601,90.924,1.533
	s-12.376,35.864-9.566,44.999s23.915,44.245,15.945,49.606S83.461,72.008,74.98,77.004s6.109,7.682,5.314,12.756
	S61.52,100.566,47.343,97.2c-14.176-3.366,10.224-31.5,7.44-38.267s-50.22,46.29-52.085,29.762s46.364-28.293,47.833-35.077
	C52,46.833,44.84,53.275,34.587,52.555z"/>
</svg>
