<?xml version="1.0" encoding="utf-8"?>
<!-- Generator: Adobe Illustrator 15.0.0, SVG Export Plug-In . SVG Version: 6.00 Build 0)  -->
<!DOCTYPE svg PUBLIC "-//W3C//DTD SVG 1.1//EN" "http://www.w3.org/Graphics/SVG/1.1/DTD/svg11.dtd">
<svg version="1.1" id="Layer_1" xmlns="http://www.w3.org/2000/svg" xmlns:xlink="http://www.w3.org/1999/xlink" x="0px" y="0px"
	 width="100px" height="100px" viewBox="0 0 100 100" enable-background="new 0 0 100 100" xml:space="preserve">
<path fill="none" stroke="#000000" d="M39.521,40.795C39.5,30.167,23.017,30.321,22.842,22.077s2.643-13.963,13.9-14.27
	s9.751,6.852,17.421,5.189s6.596-11.781,17.05-11.305s-6.569,17.336-2.225,22.239S81.167,27.699,84,39.683
	S73.028,91.317,65.098,93.242s0.752-9.923-6.673-10.749s-4.878,12.88-15.568,11.86c-10.69-1.02,8.19-27.967,0-28.91
	c-8.19-0.943-14.905,35.436-27.798,32.246s30.542-37.652,25.575-42.254S17.446,86.29,11.723,73.229S39.542,51.423,39.521,40.795z"/>
</svg>
