<?xml version="1.0" encoding="utf-8"?>
<!-- Generator: Adobe Illustrator 15.0.0, SVG Export Plug-In . SVG Version: 6.00 Build 0)  -->
<!DOCTYPE svg PUBLIC "-//W3C//DTD SVG 1.1//EN" "http://www.w3.org/Graphics/SVG/1.1/DTD/svg11.dtd">
<svg version="1.1" id="Layer_1" xmlns="http://www.w3.org/2000/svg" xmlns:xlink="http://www.w3.org/1999/xlink" x="0px" y="0px"
	 width="100px" height="100px" viewBox="0 0 100 100" enable-background="new 0 0 100 100" xml:space="preserve">
<path fill="none" stroke="#000000" d="M38.25,38.719c2.417-10.052-15.801-17.47-8.859-25.511s28.334-11.34,31.888-6.024
	s-13.329,8.323-7.971,16.653s11.141-13.672,19.666-11.338s-8.321,14.202-1.064,17.185S85.965-6.258,94.232,6.121
	s-8.272,45.063-8.858,51.554s11.595-11.178,13.11,2.657s-18.491,1.902-16.654,9.035s4.006,0.267,7.088,4.783
	s-0.842,16.084-10.63,19.134s-47.172-3.268-48.897-11.692s13.19-12.523,6.733-15.058S5.634,90.221,2.817,76.277
	S35.833,48.771,38.25,38.719z"/>
</svg>
