<?xml version="1.0" encoding="utf-8"?>
<!-- Generator: Adobe Illustrator 15.0.0, SVG Export Plug-In . SVG Version: 6.00 Build 0)  -->
<!DOCTYPE svg PUBLIC "-//W3C//DTD SVG 1.1//EN" "http://www.w3.org/Graphics/SVG/1.1/DTD/svg11.dtd">
<svg version="1.1" id="Layer_1" xmlns="http://www.w3.org/2000/svg" xmlns:xlink="http://www.w3.org/1999/xlink" x="0px" y="0px"
	 width="100px" height="100px" viewBox="0 0 100 100" enable-background="new 0 0 100 100" xml:space="preserve">
<path fill="none" stroke="#000000" d="M22.691,55.575c0.143-6.242-14.577-0.12-17.134-7.264s15.433-6.692,17.271-10.418
	S3.932,19.029,18.716,16.098s3.534,22.697,13.159,25.633s39.5-43.75,60.312-40.574S53.396,48.173,53.396,48.173l20.149,7.813
	c0,0,18.303,6.104,17.545,18.643S63.279,100.98,53.807,97.657c-9.473-3.323,9.2-6.237,10.28-14.53s-14.705-17.25-26.729-17.271
	s-5.26,22.747-18.642,23.029S7.667,74.333,10,65.75S22.548,61.816,22.691,55.575z"/>
</svg>
