<?xml version="1.0" encoding="utf-8"?>
<!-- Generator: Adobe Illustrator 15.0.0, SVG Export Plug-In . SVG Version: 6.00 Build 0)  -->
<!DOCTYPE svg PUBLIC "-//W3C//DTD SVG 1.1//EN" "http://www.w3.org/Graphics/SVG/1.1/DTD/svg11.dtd">
<svg version="1.1" id="Layer_1" xmlns="http://www.w3.org/2000/svg" xmlns:xlink="http://www.w3.org/1999/xlink" x="0px" y="0px"
	 width="100px" height="100px" viewBox="0 0 100 100" enable-background="new 0 0 100 100" xml:space="preserve">
<path fill="none" stroke="#000000" d="M3.219,39.475C4.833,24.667,27.75,7.76,38.292,7.797s16.177,10.838,23.192,7.354
	S60.678,1.28,68.839,2.14s5.133,11.075,11.313,9.051S81.07-1.553,92.785,2.14s-27.94,51.495-23.946,61.094
	s12.197,13.154,2.263,22.627s-46.058,17.355-43.747,7.164s17.613-17.547,8.296-17.536s-8.849,25.29-22.25,22.817
	s19.055-26.271,13.577-29.039S4.63,91.216,5.482,77.941S40.32,60.814,37.16,49.657S1.604,54.283,3.219,39.475z"/>
</svg>
