<?xml version="1.0" encoding="utf-8"?>
<!-- Generator: Adobe Illustrator 15.0.0, SVG Export Plug-In . SVG Version: 6.00 Build 0)  -->
<!DOCTYPE svg PUBLIC "-//W3C//DTD SVG 1.1//EN" "http://www.w3.org/Graphics/SVG/1.1/DTD/svg11.dtd">
<svg version="1.1" id="Layer_1" xmlns="http://www.w3.org/2000/svg" xmlns:xlink="http://www.w3.org/1999/xlink" x="0px" y="0px"
	 width="100px" height="100px" viewBox="0 0 100 100" enable-background="new 0 0 100 100" xml:space="preserve">
<path fill="none" stroke="#000000" d="M8.74,2.989c13.144,1.678,11.541,20.019,19.99,19.015S35.979,2.483,48.722,6.158
	s-9.321,31.768,3.997,33.805C66.037,42,79.484-1.614,92.866,3.693S71.577,29.508,79.373,32.921c7.795,3.413,9.244-9.23,13.329-1.409
	s4.166,62.599-9.83,63.21c-13.997,0.611-18.178-25.797-25.154-22.01s-2.714,12.453-10.996,11.62
	c-8.281-0.833,0.645-23.017-7.997-20.425c-8.642,2.592,5.307,24.946-14.993,33.103C3.434,105.167-4.403,1.312,8.74,2.989z"/>
</svg>
