<?xml version="1.0" encoding="utf-8"?>
<!-- Generator: Adobe Illustrator 15.0.0, SVG Export Plug-In . SVG Version: 6.00 Build 0)  -->
<!DOCTYPE svg PUBLIC "-//W3C//DTD SVG 1.1//EN" "http://www.w3.org/Graphics/SVG/1.1/DTD/svg11.dtd">
<svg version="1.1" id="Layer_1" xmlns="http://www.w3.org/2000/svg" xmlns:xlink="http://www.w3.org/1999/xlink" x="0px" y="0px"
	 width="100px" height="100px" viewBox="0 0 100 100" enable-background="new 0 0 100 100" xml:space="preserve">
<path fill="none" stroke="#000000" d="M43.911,21.296c6.422-9.796,24.101-0.171,29.845-3.4S79.323,3.058,89.245,2.029
	s11.281,11.728,7.935,24.933S64.022,40.527,63.178,50.764s36.114-6.641,35.135,12.465s-10.69,1.062-22.668,0
	s-11.274,8.34-14.543,16.056S28.456,96.158,18.978,93.829s2.2-9.528-1.889-15.679s-0.433,9.809-7.178,7.746
	S0.79,79.989,1.978,59.828s35.911-0.17,40.8-11.332C47.667,37.333,37.489,31.092,43.911,21.296z"/>
</svg>
