<?xml version="1.0" encoding="utf-8"?>
<!-- Generator: Adobe Illustrator 15.0.0, SVG Export Plug-In . SVG Version: 6.00 Build 0)  -->
<!DOCTYPE svg PUBLIC "-//W3C//DTD SVG 1.1//EN" "http://www.w3.org/Graphics/SVG/1.1/DTD/svg11.dtd">
<svg version="1.1" id="Layer_1" xmlns="http://www.w3.org/2000/svg" xmlns:xlink="http://www.w3.org/1999/xlink" x="0px" y="0px"
	 width="100px" height="100px" viewBox="0 0 100 100" enable-background="new 0 0 100 100" xml:space="preserve">
<path fill="none" stroke="#000000" d="M22.506,47.47C21.5,38.333,9.833,54.041,4,49.354c-5.833-4.688-3.474-41.08,14.596-45.217
	s31.719,7.72,34.145,13.458s-6.335,3.703-7.038,11.304s13.679,12.159,17.725,10.766S93.833,19.81,97.833,27.822
	S73.522,40.875,63.428,49.354S89.412,63.372,94.706,76.27S46.066,95.974,41.533,94.57s1.048-7.688-3.909-8.883
	s2.337,14.286-7.56,8.883s10.742-16.042,6.256-24.223s-26.234,2.327-31.277-4.844S23.512,56.607,22.506,47.47z"/>
</svg>
