<?xml version="1.0" encoding="utf-8"?>
<!-- Generator: Adobe Illustrator 15.0.0, SVG Export Plug-In . SVG Version: 6.00 Build 0)  -->
<!DOCTYPE svg PUBLIC "-//W3C//DTD SVG 1.1//EN" "http://www.w3.org/Graphics/SVG/1.1/DTD/svg11.dtd">
<svg version="1.1" id="Layer_1" xmlns="http://www.w3.org/2000/svg" xmlns:xlink="http://www.w3.org/1999/xlink" x="0px" y="0px"
	 width="100px" height="100px" viewBox="0 0 100 100" enable-background="new 0 0 100 100" xml:space="preserve">
<path fill="none" stroke="#000000" d="M5.643,44.527C0,37.167-2.615,4.771,19.276,2.386s45.736,8.686,46.48,16.733
	s-1.201,8.521,2.271,10.535s29.528-25.073,29.334-6.197S69.335,45.406,71.334,53.203s29.389,1.451,26.027,14.874
	s-34.351-13.601-38.424-7.644s49.353,31.943,24.791,33.672S62.053,63.15,48.61,63.325C35.167,63.5,31.385,98.812,19.276,97.823
	s17.232-26.647,12.395-30.985S4.662,80.779,3.164,70.557S29.5,59.842,27.333,52.171S11.286,51.887,5.643,44.527z"/>
</svg>
