<?xml version="1.0" encoding="utf-8"?>
<!-- Generator: Adobe Illustrator 15.0.0, SVG Export Plug-In . SVG Version: 6.00 Build 0)  -->
<!DOCTYPE svg PUBLIC "-//W3C//DTD SVG 1.1//EN" "http://www.w3.org/Graphics/SVG/1.1/DTD/svg11.dtd">
<svg version="1.1" id="Layer_1" xmlns="http://www.w3.org/2000/svg" xmlns:xlink="http://www.w3.org/1999/xlink" x="0px" y="0px"
	 width="100px" height="100px" viewBox="0 0 100 100" enable-background="new 0 0 100 100" xml:space="preserve">
<path fill="none" stroke="#000000" d="M17.259,12.182c4.908-6.515,22.908,22.332,26.491,18.742S8.379,3.45,25.773,1.725
	S52.344,34.415,58.13,29.938S76.146-2.243,93.323,2.712S62.446,31.158,63.807,37.829s11.904-9.42,19.299-6.708
	S64.229,49.682,72.698,50.258s8.24-7.939,18.354-4.932s7.573,39.753-3.406,43.797s-12.615-8.311-21.381-7.3s0.099,9.796-7,14.403
	s-35.498-4.479-41.061-9.076s9.292-11.865,2.46-14.008s-6.583,15.437-13.624,15.98S0.167,84.268,2.5,72.551s38.7-10.229,38.6-21.307
	S12.351,18.697,17.259,12.182z"/>
</svg>
