<?xml version="1.0" encoding="utf-8"?>
<!-- Generator: Adobe Illustrator 15.0.0, SVG Export Plug-In . SVG Version: 6.00 Build 0)  -->
<!DOCTYPE svg PUBLIC "-//W3C//DTD SVG 1.1//EN" "http://www.w3.org/Graphics/SVG/1.1/DTD/svg11.dtd">
<svg version="1.1" id="Layer_1" xmlns="http://www.w3.org/2000/svg" xmlns:xlink="http://www.w3.org/1999/xlink" x="0px" y="0px"
	 width="100px" height="100px" viewBox="0 0 100 100" enable-background="new 0 0 100 100" xml:space="preserve">
<path fill="none" stroke="#000000" d="M32.102,52.469c1.336-9.193-7.629-1.277-21.015-5.397c-13.386-4.12-9.244-7.831-5.254-15.114
	c3.99-7.283,25.771,11.761,25.743,0.541c-0.028-11.22-15.481-28.834-5.078-29.327c10.403-0.493,9.657,42.188,21.365,40.661
	s-16.17-43.693-1.05-42.1c15.119,1.593,5.84,28.127,9.457,30.225c3.615,2.099,25.335-22.562,38.876-14.033
	c13.544,8.529-18.559,43.715-14.709,49.655c3.851,5.939,16.02,4.23,15.76,13.494c-0.26,9.266-20.109-14.039-23.565-6.754
	c-3.458,7.287,24.661,14.23,21.465,19.168c-3.196,4.939-14.87,2.873-29.42-2.158C50.125,86.297,53.165,69.301,44.01,68.662
	c-9.155-0.641-15.696,30.941-28.72,25.906C2.267,89.533,30.766,61.662,32.102,52.469z"/>
</svg>
