<?xml version="1.0" encoding="utf-8"?>
<!-- Generator: Adobe Illustrator 15.0.0, SVG Export Plug-In . SVG Version: 6.00 Build 0)  -->
<!DOCTYPE svg PUBLIC "-//W3C//DTD SVG 1.1//EN" "http://www.w3.org/Graphics/SVG/1.1/DTD/svg11.dtd">
<svg version="1.1" id="Layer_1" xmlns="http://www.w3.org/2000/svg" xmlns:xlink="http://www.w3.org/1999/xlink" x="0px" y="0px"
	 width="100px" height="100px" viewBox="0 0 100 100" enable-background="new 0 0 100 100" xml:space="preserve">
<path fill="none" stroke="#000000" d="M43.12,12.333C46,6.75,65.566,6.382,70.533,11.191S47.516,53.723,52.258,55.736
	S86.324,1.606,95.662,2.053S77.273,27.502,77.387,31.751s14.582-2.077,14.848,5.711S66.711,48.906,67.105,53.453
	s31.072-10.297,31.983,0s-39.651,13.574-41.12,20.561s14.779,15.133,10.28,20.56S50.99,85.871,43.12,85.436S10.854,102.75,5.427,98
	s21.831-17.154,21.702-21.702S4,89.734,2,80.867s42.344-15.471,44.547-19.419S40.24,17.916,43.12,12.333z"/>
</svg>
