<?xml version="1.0" encoding="utf-8"?>
<!-- Generator: Adobe Illustrator 15.0.0, SVG Export Plug-In . SVG Version: 6.00 Build 0)  -->
<!DOCTYPE svg PUBLIC "-//W3C//DTD SVG 1.1//EN" "http://www.w3.org/Graphics/SVG/1.1/DTD/svg11.dtd">
<svg version="1.1" id="Layer_1" xmlns="http://www.w3.org/2000/svg" xmlns:xlink="http://www.w3.org/1999/xlink" x="0px" y="0px"
	 width="100px" height="100px" viewBox="0 0 100 100" enable-background="new 0 0 100 100" xml:space="preserve">
<path fill="none" stroke="#000000" d="M32.666,53.509c4.634-3.209,15.029-3.521,17.932-8.965c2.903-5.444,1.541-26.952,5.121-33.298
	C59.3,4.9,62.205-0.5,80.053,1s0.906,44.034-5.123,48.667s-16.471,0.657-16.65,10.245c-0.178,9.588,10.552,20.404,7.687,26.896
	c-2.864,6.49-13.719,11.76-20.492,11.524s-11.801-4.138-14.087-7.687C29.101,87.098,31.548,76.7,28.824,74
	c-2.724-2.7-6.766,10.184-10.245,3.842S28.032,56.718,32.666,53.509z"/>
</svg>
