<?xml version="1.0" encoding="utf-8"?>
<!-- Generator: Adobe Illustrator 15.0.0, SVG Export Plug-In . SVG Version: 6.00 Build 0)  -->
<!DOCTYPE svg PUBLIC "-//W3C//DTD SVG 1.1//EN" "http://www.w3.org/Graphics/SVG/1.1/DTD/svg11.dtd">
<svg version="1.1" id="Layer_1" xmlns="http://www.w3.org/2000/svg" xmlns:xlink="http://www.w3.org/1999/xlink" x="0px" y="0px"
	 width="100px" height="100px" viewBox="0 0 100 100" enable-background="new 0 0 100 100" xml:space="preserve">
<path fill="none" stroke="#000000" d="M43.262,13.635c10.238-0.333,12.402,19.586,19.32,15.726S69.702-2.767,73.7,2.901
	s-5.316,25.673-1.458,25.336s7.922-25.101,14.49-20.219s-14.288,23.588-9.66,25.835s10.506-6.401,10.867,1.123
	s-17.571,9.375-16.905,16.849S97.299,71.913,97.6,79.907s-7.527,11.581-18.113,8.987S65.264,46.811,56.082,48.756
	S36.708,62.26,36.695,70.198s24.368,9.157,20.708,19.626s-57.521,8.357-56.22-7.818s40.404-35.217,38.961-42.461
	S6.116,61.411,2.208,48.456S33.024,13.968,43.262,13.635z"/>
</svg>
