<?xml version="1.0" encoding="utf-8"?>
<!-- Generator: Adobe Illustrator 15.0.0, SVG Export Plug-In . SVG Version: 6.00 Build 0)  -->
<!DOCTYPE svg PUBLIC "-//W3C//DTD SVG 1.1//EN" "http://www.w3.org/Graphics/SVG/1.1/DTD/svg11.dtd">
<svg version="1.1" id="Layer_1" xmlns="http://www.w3.org/2000/svg" xmlns:xlink="http://www.w3.org/1999/xlink" x="0px" y="0px"
	 width="100px" height="100px" viewBox="0 0 100 100" enable-background="new 0 0 100 100" xml:space="preserve">
<path fill="none" stroke="#000000" d="M5.976,29.393C1.3,20.301,5.423,4.41,16.562,4.555s25.085,30.068,34.112,20.107
	S83.69-2.521,94.195,2.19S75.05,15.023,75.375,24.662s21.174,15.895,22.35,29.566s-2.104,44.249-11.764,43.761
	S57.247,55.619,50.674,58.96s0.716,15.803-3.529,22.472s-36.6,18.923-43.522,7.096S17.775,65.75,17.738,61.325
	s-12.406,0.8-12.822-4.612s20.547,0.314,20.466-3.549s-24.238,1.251-23.76-7.806s43.013,10.408,44.346,1.775
	C47.3,38.5,10.652,38.485,5.976,29.393z"/>
</svg>
