<?xml version="1.0" encoding="utf-8"?>
<!-- Generator: Adobe Illustrator 15.0.0, SVG Export Plug-In . SVG Version: 6.00 Build 0)  -->
<!DOCTYPE svg PUBLIC "-//W3C//DTD SVG 1.1//EN" "http://www.w3.org/Graphics/SVG/1.1/DTD/svg11.dtd">
<svg version="1.1" id="Layer_1" xmlns="http://www.w3.org/2000/svg" xmlns:xlink="http://www.w3.org/1999/xlink" x="0px" y="0px"
	 width="100px" height="100px" viewBox="0 0 100 100" enable-background="new 0 0 100 100" xml:space="preserve">
<path fill="none" stroke="#000000" d="M1.84,11.503C5.5,0,49.616,38.056,53.658,32.478S14.396,8.834,24.048,2.867
	s17.398,11.954,22.543,12.216S68.257-1.375,70.932,7.802S54.09,36.059,62.295,36.179S75.104,0.435,84.502,2.867
	S81.151,23.648,88.899,30.5s7.247,9.618,5.473,15.549s-8.403,5.758-8.638,14.805s14.635,36.781,0,37.014S76.38,66.565,68.34,68.133
	s-6.102,30.904-23.971,28.436S3.079,75.947,4.889,62.023C6.7,48.1,35.08,69.078,34.29,56.289S-1.82,23.006,1.84,11.503z"/>
</svg>
