<?xml version="1.0" encoding="utf-8"?>
<!-- Generator: Adobe Illustrator 15.0.0, SVG Export Plug-In . SVG Version: 6.00 Build 0)  -->
<!DOCTYPE svg PUBLIC "-//W3C//DTD SVG 1.1//EN" "http://www.w3.org/Graphics/SVG/1.1/DTD/svg11.dtd">
<svg version="1.1" id="Layer_1" xmlns="http://www.w3.org/2000/svg" xmlns:xlink="http://www.w3.org/1999/xlink" x="0px" y="0px"
	 width="100px" height="100px" viewBox="0 0 100 100" enable-background="new 0 0 100 100" xml:space="preserve">
<path fill="none" stroke="#000000" d="M21.985,51.613C21.301,44.9-0.6,49.173,3.501,36.7s15.363,10.149,21.981,5.375
	S14.323,6.086,31.312,1.793S63.901,30.7,72.901,31.7s2.004-28.773,20.202-11.887S57.421,47.449,56.961,57.975
	S85.739,71.75,88.32,81.825s-3.463,15.861-11.541,15.368S72.702,81.5,66.102,79.3s-17.2,14-24.6,12s13.201-17.693,3.8-24.847
	s-6.379,11.313-13.99,19.08S13.227,96.805,5.664,87.652S22.668,58.326,21.985,51.613z"/>
</svg>
