<?xml version="1.0" encoding="utf-8"?>
<!-- Generator: Adobe Illustrator 15.0.0, SVG Export Plug-In . SVG Version: 6.00 Build 0)  -->
<!DOCTYPE svg PUBLIC "-//W3C//DTD SVG 1.1//EN" "http://www.w3.org/Graphics/SVG/1.1/DTD/svg11.dtd">
<svg version="1.1" id="Layer_1" xmlns="http://www.w3.org/2000/svg" xmlns:xlink="http://www.w3.org/1999/xlink" x="0px" y="0px"
	 width="100px" height="100px" viewBox="0 0 100 100" enable-background="new 0 0 100 100" xml:space="preserve">
<path fill="none" stroke="#000000" d="M2.426,11.525C9.102,1.299,34.339,22.113,39.72,18.306S44.078,6.005,50,6.299
	s7.029,22.84,18.766,17.32S77.955,0.762,90.901,2.377s4.622,52.36-6.089,54.241s-13.026-17.761-20.568-9.04
	s-1.264,25.626-8.703,24.974s-3.502-7.589-10.171-4.521c-6.668,3.068,9.348,28.638-2.26,28.253s-9.434-30.502-15.821-31.644
	S8.3,82.701,7.101,63.9c-1.199-18.801,17.959-8.953,17.88-18.377C24.902,36.099-4.25,21.75,2.426,11.525z"/>
</svg>
