<?xml version="1.0" encoding="utf-8"?>
<!-- Generator: Adobe Illustrator 15.0.0, SVG Export Plug-In . SVG Version: 6.00 Build 0)  -->
<!DOCTYPE svg PUBLIC "-//W3C//DTD SVG 1.1//EN" "http://www.w3.org/Graphics/SVG/1.1/DTD/svg11.dtd">
<svg version="1.1" id="Layer_1" xmlns="http://www.w3.org/2000/svg" xmlns:xlink="http://www.w3.org/1999/xlink" x="0px" y="0px"
	 width="100px" height="100px" viewBox="0 0 100 100" enable-background="new 0 0 100 100" xml:space="preserve">
<path fill="none" stroke="#000000" d="M3.073,37.873c4.425-6.173,8.63,6.075,12.928,2.351S5.453-0.024,17.176,1.438
	s15.99,24.552,21.156,23.507s-1.964-12.463,4.701-11.754s6.992,18.905,12.929,23.507s37.88,3.955,37.608,15.278
	S70.35,66.592,75.824,77.246s11.768-0.827,14.221,4.113s-0.808,13.218-10.577,15.279s-19.095,2.436-27.032-7.052
	c-7.937-9.487,5.334-25.232-4.702-30.56c-10.035-5.327-28.082,8.881-35.259,5.877S-1.352,44.046,3.073,37.873z"/>
</svg>
