<?xml version="1.0" encoding="utf-8"?>
<!-- Generator: Adobe Illustrator 15.0.0, SVG Export Plug-In . SVG Version: 6.00 Build 0)  -->
<!DOCTYPE svg PUBLIC "-//W3C//DTD SVG 1.1//EN" "http://www.w3.org/Graphics/SVG/1.1/DTD/svg11.dtd">
<svg version="1.1" id="Layer_1" xmlns="http://www.w3.org/2000/svg" xmlns:xlink="http://www.w3.org/1999/xlink" x="0px" y="0px"
	 width="100px" height="100px" viewBox="0 0 100 100" enable-background="new 0 0 100 100" xml:space="preserve">
<path fill="none" stroke="#000000" d="M28.807,34.134C27.499,27.299-5.654,19.596,3.899,5.699s45.225,20.03,54.712,15.915
	S73.613-1.781,83.699,4.699S67.697,31.176,73.298,33.417s10.749-11.639,19.901-7.909s6.547,56.337-3.7,56.791
	S62.992,45.496,56.346,52.098c-6.647,6.602,42.513,42.24,35.133,45.721S53.393,68.732,46.146,69.516
	c-7.247,0.783-30.287,27.053-39.667,17.418s15.954-17.3,13.487-25.367s-17.773,1.729-18.02-9.469S30.115,40.968,28.807,34.134z"/>
</svg>
