<?xml version="1.0" encoding="utf-8"?>
<!-- Generator: Adobe Illustrator 15.0.0, SVG Export Plug-In . SVG Version: 6.00 Build 0)  -->
<!DOCTYPE svg PUBLIC "-//W3C//DTD SVG 1.1//EN" "http://www.w3.org/Graphics/SVG/1.1/DTD/svg11.dtd">
<svg version="1.1" id="Layer_1" xmlns="http://www.w3.org/2000/svg" xmlns:xlink="http://www.w3.org/1999/xlink" x="0px" y="0px"
	 width="100px" height="100px" viewBox="0 0 100 100" enable-background="new 0 0 100 100" xml:space="preserve">
<path fill="none" stroke="#000000" d="M16.052,28.038C27.3,17.502,36.842,42.562,44.771,41.032s-12.649-28.854-5.46-34.943
	s11.968,5.923,16.378,4.368s4.396-9.781,13.104-4.368s-9.782,10.947-9.938,17.58s22.261,38.396,25.553,23.914
	C87.7,33.102,80.749-2.108,91.725,4.997S99.1,54.335,95,56.318s-12.507-4.584-13.104,0S107.583,80.51,92.3,86.102
	S79.014,59.555,71.9,59.902S54.454,93.619,42.477,90.061s19.402-16.27,13.212-23.914S9.468,103.589,2.184,93.445
	S38.13,57.473,34.615,51.188C31.1,44.902,4.804,38.574,16.052,28.038z"/>
</svg>
