<?xml version="1.0" encoding="utf-8"?>
<!-- Generator: Adobe Illustrator 15.0.0, SVG Export Plug-In . SVG Version: 6.00 Build 0)  -->
<!DOCTYPE svg PUBLIC "-//W3C//DTD SVG 1.1//EN" "http://www.w3.org/Graphics/SVG/1.1/DTD/svg11.dtd">
<svg version="1.1" id="Layer_1" xmlns="http://www.w3.org/2000/svg" xmlns:xlink="http://www.w3.org/1999/xlink" x="0px" y="0px"
	 width="100px" height="100px" viewBox="0 0 100 100" enable-background="new 0 0 100 100" xml:space="preserve">
<path fill="none" stroke="#000000" d="M36.668,63.706c8.432-3.007,8.575-17.591,2.348-23.554S-8.517,19.393,5.491,8.046
	s27.424,23.853,33.916,23.553S30.665,3.944,40.582,1.972s1.187,13.812,6.652,18.47S71.401-2.567,81.15,5.566
	s-7.467,17.522-7.959,29.628S103.5,87.222,95.5,96.061S68.494,64.318,65.497,66.309S84.5,89.3,72.1,94.1s-7.45-19.544-13.125-24.072
	S47.782,89.75,34.841,91.225S1.475,61.968,4.187,51.434S28.236,66.713,36.668,63.706z"/>
</svg>
