<?xml version="1.0" encoding="utf-8"?>
<!-- Generator: Adobe Illustrator 15.0.0, SVG Export Plug-In . SVG Version: 6.00 Build 0)  -->
<!DOCTYPE svg PUBLIC "-//W3C//DTD SVG 1.1//EN" "http://www.w3.org/Graphics/SVG/1.1/DTD/svg11.dtd">
<svg version="1.1" id="Layer_1" xmlns="http://www.w3.org/2000/svg" xmlns:xlink="http://www.w3.org/1999/xlink" x="0px" y="0px"
	 width="100px" height="100px" viewBox="0 0 100 100" enable-background="new 0 0 100 100" xml:space="preserve">
<path fill="none" stroke="#000000" d="M10.385,14.422C13.898-2.5,47.989,30.265,53.844,26.082S59.008-3.5,70.453,5
	s-12.79,35.679-4.973,37.289S88.341,3.711,94.698,19.3s4.376,68.624-10.112,75.212S60.283,56.59,50,62.2
	c-10.284,5.61-1.502,29.7-21.902,30.1s2.93-18-5.935-23.7s-5.883,10.699-18.126,1s23.027-7.521,21.444-12.711
	s-24.432-11.253-17-20.6s20.585,8.79,22.201,0.6S6.872,31.344,10.385,14.422z"/>
</svg>
