<?xml version="1.0" encoding="utf-8"?>
<!-- Generator: Adobe Illustrator 15.0.0, SVG Export Plug-In . SVG Version: 6.00 Build 0)  -->
<!DOCTYPE svg PUBLIC "-//W3C//DTD SVG 1.1//EN" "http://www.w3.org/Graphics/SVG/1.1/DTD/svg11.dtd">
<svg version="1.1" id="Layer_1" xmlns="http://www.w3.org/2000/svg" xmlns:xlink="http://www.w3.org/1999/xlink" x="0px" y="0px"
	 width="100px" height="100px" viewBox="0 0 100 100" enable-background="new 0 0 100 100" xml:space="preserve">
<path fill="none" stroke="#000000" d="M27.039,40.596c-0.539-6.295-16.641-1.099-19.356-7.879S-2.916,9.911,6.392,10.206
	S33.839,34.45,35.9,27.301s-1.914-7.088,4.043-14.844s13.977,5.658,18.067,2.251S61.326-2.647,70.913,2.327
	S59.164,14.119,68.332,19.21s27.413-8.583,28.391,6.754S52.3,51.498,71.7,58.501S92.127,91.898,70.913,98
	C49.7,104.102,60.395,73.652,52.1,77.102c-8.295,3.449,3.152,12.146-3.124,17.522C42.7,100,11.168,82.071,14.134,70.986
	s18.625-10.381,14.195-14.633s-3.922,8.053-16.776,0C-1.3,48.301,27.578,46.891,27.039,40.596z"/>
</svg>
