<?xml version="1.0" encoding="utf-8"?>
<!-- Generator: Adobe Illustrator 15.0.0, SVG Export Plug-In . SVG Version: 6.00 Build 0)  -->
<!DOCTYPE svg PUBLIC "-//W3C//DTD SVG 1.1//EN" "http://www.w3.org/Graphics/SVG/1.1/DTD/svg11.dtd">
<svg version="1.1" id="Layer_1" xmlns="http://www.w3.org/2000/svg" xmlns:xlink="http://www.w3.org/1999/xlink" x="0px" y="0px"
	 width="100px" height="100px" viewBox="0 0 100 100" enable-background="new 0 0 100 100" xml:space="preserve">
<path fill="none" stroke="#000000" d="M35.195,48.558C38.299,39.301,31,43.527,15.5,35.814S14.321,1.331,23.61,2.216
	s8.199,22.623,12.744,20.854s-4.029-2.603,1.158-11.586s6.067,3.803,10.427,8.11s4.409-12.608,11.584-6.951
	s-7.725,22.236-3.475,26.647s17.629-17.396,32.439-5.793S39.362,43.683,53.73,53.191s45.685,10.571,44.026,32.44
	s-27.249-6.624-37.653-5.678s-4.574,5.212-8.689,12.629s-24.673,9.634-28.115,0.718s19.182-6.36,10.391-13.58
	s-9.409,9.91-26.3,10.545S32.091,57.815,35.195,48.558z"/>
</svg>
