<?xml version="1.0" encoding="utf-8"?>
<!-- Generator: Adobe Illustrator 15.0.0, SVG Export Plug-In . SVG Version: 6.00 Build 0)  -->
<!DOCTYPE svg PUBLIC "-//W3C//DTD SVG 1.1//EN" "http://www.w3.org/Graphics/SVG/1.1/DTD/svg11.dtd">
<svg version="1.1" id="Layer_1" xmlns="http://www.w3.org/2000/svg" xmlns:xlink="http://www.w3.org/1999/xlink" x="0px" y="0px"
	 width="100px" height="100px" viewBox="0 0 100 100" enable-background="new 0 0 100 100" xml:space="preserve">
<path fill="none" stroke="#000000" d="M31.9,45.7c0.65-10.937-30.1-7.635-25.35-29.117s28.002,11.28,29.576,2.899
	S48.407-1.15,61.354,2.375s-14.855,25.398-8.555,31.462s20.292-14.961,31.896-10.149s18.896,33.58,7.25,37.696
	s-27.049-12.315-27.547-2.899s38.993,29.88,24.647,36.248s-38.554-28.519-40.45-19.575C46.7,84.101,74.102,86.701,53.9,96.101
	C33.7,105.5,43.376,67.296,32.938,68.198S5.122,85.936,6.111,68.218S31.25,56.637,31.9,45.7z"/>
</svg>
