<?xml version="1.0" encoding="utf-8"?>
<!-- Generator: Adobe Illustrator 15.0.0, SVG Export Plug-In . SVG Version: 6.00 Build 0)  -->
<!DOCTYPE svg PUBLIC "-//W3C//DTD SVG 1.1//EN" "http://www.w3.org/Graphics/SVG/1.1/DTD/svg11.dtd">
<svg version="1.1" id="Layer_1" xmlns="http://www.w3.org/2000/svg" xmlns:xlink="http://www.w3.org/1999/xlink" x="0px" y="0px"
	 width="100px" height="100px" viewBox="0 0 100 100" enable-background="new 0 0 100 100" xml:space="preserve">
<path fill="none" stroke="#000000" d="M32.035,50.388c6.266-8.688-10.736-44.052-1.535-47.22s4.41,11.877,11.805,11.805
	S57.445-1.765,62.373,3.168s-11.01,11.162-3.541,15.347S92.073-5.125,97.787,1.988S55.522,32.187,60.012,40.944
	s20.767-2.268,22.428,9.444s-28.081,14.307-29.51,23.61s6.424,20.673-5.903,18.888c-12.326-1.785,2.842-19.427-3.542-17.706
	s-14.452,25.008-25.784,21.921S-1.965,58.914,2.168,49.207C6.301,39.5,25.77,59.076,32.035,50.388z"/>
</svg>
