<?xml version="1.0" encoding="utf-8"?>
<!-- Generator: Adobe Illustrator 15.0.0, SVG Export Plug-In . SVG Version: 6.00 Build 0)  -->
<!DOCTYPE svg PUBLIC "-//W3C//DTD SVG 1.1//EN" "http://www.w3.org/Graphics/SVG/1.1/DTD/svg11.dtd">
<svg version="1.1" id="Layer_1" xmlns="http://www.w3.org/2000/svg" xmlns:xlink="http://www.w3.org/1999/xlink" x="0px" y="0px"
	 width="100px" height="100px" viewBox="0 0 100 100" enable-background="new 0 0 100 100" xml:space="preserve">
<path fill="none" stroke="#000000" d="M1.149,22.42C2.699,7.9,35.797,47.432,41.848,41.366S14.438,16.828,25.569,7.264
	s14.583,10.803,23.256,14.82s6.787-22.256,20.931-14.82s-0.059,26.748,3.143,30.692s5.963-7.701,15.582-7.578
	s10.167,16.113,2.093,23.618s-13.258-14.269-20.466-5.682s32.197,30.639,26.395,42.313s-11.666,6.295-24.534-8.716
	s-6.911-25.619-12.79-27.915s8.099,34.377-9.19,32.841s1.164-19.734-1.163-22.735s-8.387,22.651-23.256,26.525
	s10.584-30.693,10.584-30.693S-0.401,36.939,1.149,22.42z"/>
</svg>
