<?xml version="1.0" encoding="utf-8"?>
<!-- Generator: Adobe Illustrator 15.0.0, SVG Export Plug-In . SVG Version: 6.00 Build 0)  -->
<!DOCTYPE svg PUBLIC "-//W3C//DTD SVG 1.1//EN" "http://www.w3.org/Graphics/SVG/1.1/DTD/svg11.dtd">
<svg version="1.1" id="Layer_1" xmlns="http://www.w3.org/2000/svg" xmlns:xlink="http://www.w3.org/1999/xlink" x="0px" y="0px"
	 width="100px" height="100px" viewBox="0 0 100 100" enable-background="new 0 0 100 100" xml:space="preserve">
<path fill="none" stroke="#000000" d="M32.661,41.474C35.646,37.021-5.93,20.511,8.941,7.588
	C23.812-5.334,30.665,23.069,34.92,23.401S35.605,7.456,46.215,6.459c10.608-0.997-1.233,34.194,7.906,29.367
	C63.261,31,71.156-5.11,91.396,1.941c20.241,7.051-32.056,28.538-29.369,33.885s19.09-12.716,25.111,1.195
	c6.02,13.911-15.365,6.261-20.971,11.851c-5.606,5.59,19.624,39.225-1.087,49.191c-20.713,9.966-9.102-55.39-19.995-40.775
	c-10.893,14.614-5.369,46.412-15.812,38.403s4.581-21.759,2.259-24.85c-2.322-3.092-5.067,18.474-18.073,18.072
	S26.912,58.3,27.127,53.785C27.342,49.271,8.446,64.83,6.683,50.51C4.918,36.19,29.675,45.926,32.661,41.474z"/>
</svg>
