<?xml version="1.0" encoding="utf-8"?>
<!-- Generator: Adobe Illustrator 15.0.0, SVG Export Plug-In . SVG Version: 6.00 Build 0)  -->
<!DOCTYPE svg PUBLIC "-//W3C//DTD SVG 1.1//EN" "http://www.w3.org/Graphics/SVG/1.1/DTD/svg11.dtd">
<svg version="1.1" id="Layer_1" xmlns="http://www.w3.org/2000/svg" xmlns:xlink="http://www.w3.org/1999/xlink" x="0px" y="0px"
	 width="100px" height="100px" viewBox="0 0 100 100" enable-background="new 0 0 100 100" xml:space="preserve">
<path fill="none" stroke="#000000" d="M6.998,39.864c5.501-6.564,19.174,5.75,28.738,3.593S49.44-6.824,66.87,5.138
	s-8.204,14.352-5.987,20.357s32.73-10.802,35.924-1.198S71.066,40.648,71.5,43.1s24.419-10.703,24.109,3.949
	s-32.707,2.323-43.108,5.987S63.05,74.051,64.475,81.775S48.758,107.6,39.329,93.75s12.795-6.172,2.371-21.649
	s-24.82,12.976-31.11,3.688s10.055-4.067,8.382-10.777S4.416,75.916,2.208,66.208S1.497,46.428,6.998,39.864z"/>
</svg>
