<?xml version="1.0" encoding="utf-8"?>
<!-- Generator: Adobe Illustrator 15.0.0, SVG Export Plug-In . SVG Version: 6.00 Build 0)  -->
<!DOCTYPE svg PUBLIC "-//W3C//DTD SVG 1.1//EN" "http://www.w3.org/Graphics/SVG/1.1/DTD/svg11.dtd">
<svg version="1.1" id="Layer_1" xmlns="http://www.w3.org/2000/svg" xmlns:xlink="http://www.w3.org/1999/xlink" x="0px" y="0px"
	 width="100px" height="100px" viewBox="0 0 100 100" enable-background="new 0 0 100 100" xml:space="preserve">
<path fill="none" stroke="#000000" d="M37.274,33.727C27.7,29.301,18.284,40.6,12.492,38.95S-1.144,33.282,1.378,23.391
	s17.07-6.088,28.896,1.111S48.044-2.318,59.17,1.164s-16.621,29.209-4.445,26.673S67.07-8.104,80.285,4.498
	S53.723,30.092,53.611,43.396s39.021-26.755,44.455-12.225S75.265,42.428,75.282,50.064s16.326,8.549,11.672,18.893
	S44.655,70.24,50.278,80.07s3.352,20.157-11.113,18.894s1.551-30.596-5.557-32.229S25.152,81.64,15.826,80.07
	s0.262-21.643,6.668-30.006C28.9,41.701,46.848,38.153,37.274,33.727z"/>
</svg>
