<?xml version="1.0" encoding="utf-8"?>
<!-- Generator: Adobe Illustrator 15.0.0, SVG Export Plug-In . SVG Version: 6.00 Build 0)  -->
<!DOCTYPE svg PUBLIC "-//W3C//DTD SVG 1.1//EN" "http://www.w3.org/Graphics/SVG/1.1/DTD/svg11.dtd">
<svg version="1.1" id="Layer_1" xmlns="http://www.w3.org/2000/svg" xmlns:xlink="http://www.w3.org/1999/xlink" x="0px" y="0px"
	 width="100px" height="100px" viewBox="0 0 100 100" enable-background="new 0 0 100 100" xml:space="preserve">
<path fill="none" stroke="#000000" d="M26.447,44.107C26.299,35.899-5.546,38.695,6.984,22.03S33.456,35.423,40.1,31.1
	S10.568,4,26.334,2s23.808,19.575,32.565,24.1s33.861-6.935,35.931,11.833S82.284,43.459,72.1,51.3s30.384,23.752,14.892,33.876
	s-17.414-23.969-29.492-9.477C45.421,90.191,56.1,104.3,36.1,97.1s2.973-29.216-5.8-36.2C21.526,53.916,10,73.467,5,50.283
	S26.594,52.314,26.447,44.107z"/>
</svg>
