<?xml version="1.0" encoding="utf-8"?>
<!-- Generator: Adobe Illustrator 15.0.0, SVG Export Plug-In . SVG Version: 6.00 Build 0)  -->
<!DOCTYPE svg PUBLIC "-//W3C//DTD SVG 1.1//EN" "http://www.w3.org/Graphics/SVG/1.1/DTD/svg11.dtd">
<svg version="1.1" id="Layer_1" xmlns="http://www.w3.org/2000/svg" xmlns:xlink="http://www.w3.org/1999/xlink" x="0px" y="0px"
	 width="100px" height="100px" viewBox="0 0 100 100" enable-background="new 0 0 100 100" xml:space="preserve">
<path fill="none" stroke="#000000" d="M7.653,23.184C14.3,19.5,27.541,34.727,31.321,30.913c3.78-3.814-31.563-16.575-22.592-27.094
	s33.742,23.96,41.957,25.82c8.215,1.86,45.553-15.669,45.185-4.304c-0.369,11.365-25.2,5.863-28.285,10.214
	C64.5,39.9,85.176,31.996,88.338,42.548s-25.686-1.296-27.861,4.628c-2.175,5.924,9.574,5.348,12.799,14.735
	c3.226,9.388-1.137,28.565-10.756,32.276C52.9,97.9,56.122,86.211,49.611,80.956C43.1,75.701,11.958,104.129,8.729,97.414
	S32.35,75.567,26.1,66.101c-6.25-9.468-10.871,14.928-19.6,11.6S1.005,26.869,7.653,23.184z"/>
</svg>
