<?xml version="1.0" encoding="utf-8"?>
<!-- Generator: Adobe Illustrator 15.0.0, SVG Export Plug-In . SVG Version: 6.00 Build 0)  -->
<!DOCTYPE svg PUBLIC "-//W3C//DTD SVG 1.1//EN" "http://www.w3.org/Graphics/SVG/1.1/DTD/svg11.dtd">
<svg version="1.1" id="Layer_1" xmlns="http://www.w3.org/2000/svg" xmlns:xlink="http://www.w3.org/1999/xlink" x="0px" y="0px"
	 width="100px" height="100px" viewBox="0 0 100 100" enable-background="new 0 0 100 100" xml:space="preserve">
<path fill="none" stroke="#000000" d="M31.518,36.53c1.582-5.429-18.094-17.866-17.956-25.348S46.021,1.995,51.101,15.5
	s45.2-1.175,45.899,9.413S89.1,43.7,84.5,38.1s-17.898-6.315-12.6,5.4c5.298,11.712,23.418,4.392,20.399,14.201
	C89.281,67.51,65.017,65.765,58.7,70.7c-6.315,4.936-35.4,32.602-48.4,25.001c-9.516-5.562-9.435-26.96-2.018-34.881
	c7.417-7.92,2.856-9.137,6.337-13.729S29.937,41.959,31.518,36.53z"/>
</svg>
