<?xml version="1.0" encoding="utf-8"?>
<!-- Generator: Adobe Illustrator 15.0.0, SVG Export Plug-In . SVG Version: 6.00 Build 0)  -->
<!DOCTYPE svg PUBLIC "-//W3C//DTD SVG 1.1//EN" "http://www.w3.org/Graphics/SVG/1.1/DTD/svg11.dtd">
<svg version="1.1" id="Layer_1" xmlns="http://www.w3.org/2000/svg" xmlns:xlink="http://www.w3.org/1999/xlink" x="0px" y="0px"
	 width="100px" height="100px" viewBox="0 0 100 100" enable-background="new 0 0 100 100" xml:space="preserve">
<path fill="none" stroke="#000000" d="M24.615,41.579C20.301,26.899-0.529,13.398,5.686,6.699C11.901,0,29.662,7.252,34.08,15.551
	c4.418,8.299,6.805,15.579,13.013,16.563c6.208,0.984,1.158-9.013,1.183-13.014s12.103-8.797,16.564-7.099
	c4.461,1.698,1.204,4.167,4.732,4.733c3.527,0.566,5.6-3.897,9.464-2.366c3.864,1.531-19.995,20.257-2.365,28.394
	c17.63,8.136,23.388,27.8,19.302,31.554C87.501,82.1,78.207,60.291,78.101,65.9c-0.106,5.608,18.333,14.27,19.866,24.185
	s-28.466,7.663-34.666,1.538c-6.199-6.125,2.098-13.447,0.948-20.586S51.396,52.17,47.448,58.734
	C43.5,65.298,61.882,80.041,54.191,84.17C46.5,88.299,38.193,72.145,29.347,73.521c-8.846,1.377-17.975,11.32-23.661,3.549
	C0,69.298,9.765,64.948,16.333,66.424C22.901,67.9,28.93,56.259,24.615,41.579z"/>
</svg>
