<?xml version="1.0" encoding="utf-8"?>
<!-- Generator: Adobe Illustrator 15.0.0, SVG Export Plug-In . SVG Version: 6.00 Build 0)  -->
<!DOCTYPE svg PUBLIC "-//W3C//DTD SVG 1.1//EN" "http://www.w3.org/Graphics/SVG/1.1/DTD/svg11.dtd">
<svg version="1.1" id="Layer_1" xmlns="http://www.w3.org/2000/svg" xmlns:xlink="http://www.w3.org/1999/xlink" x="0px" y="0px"
	 width="100px" height="100px" viewBox="0 0 100 100" enable-background="new 0 0 100 100" xml:space="preserve">
<path fill="none" stroke="#000000" d="M21.21,45.685C17.7,32.7,7.332,34.901,3.666,25.801S2.05,4.256,7.175,3.578
	C12.3,2.9,16.538,20.561,24.719,24.631C32.9,28.701,97.637-1.047,95.3,12.5c-2.336,13.547-21.292,24.911-14.8,35.2
	s21.473,25.141,16.736,44.771C92.501,112.102,61.1,59.701,55.5,69.301s1.902,17.74-5.048,23.17C43.501,97.9,30.536,79.774,27.1,83.7
	s-2.029,14.479-16.6,10C-4.071,89.221,24.72,58.67,21.21,45.685z"/>
</svg>
