<?xml version="1.0" encoding="utf-8"?>
<!-- Generator: Adobe Illustrator 15.0.0, SVG Export Plug-In . SVG Version: 6.00 Build 0)  -->
<!DOCTYPE svg PUBLIC "-//W3C//DTD SVG 1.1//EN" "http://www.w3.org/Graphics/SVG/1.1/DTD/svg11.dtd">
<svg version="1.1" id="Layer_1" xmlns="http://www.w3.org/2000/svg" xmlns:xlink="http://www.w3.org/1999/xlink" x="0px" y="0px"
	 width="100px" height="100px" viewBox="0 0 100 100" enable-background="new 0 0 100 100" xml:space="preserve">
<polygon fill="none" stroke="#000000" points="16.88,40.125 31.025,43.389 8.176,10.748 11.115,1.501 33.201,25.98 33.201,15.101 
	44.081,9.66 51.697,37.949 87.603,5.308 94.131,3.132 97.395,14.012 59.313,37.949 77.811,30.333 65.842,39.037 75.634,35.773 
	60.401,43.389 65.842,87.999 62.253,97.9 47.345,79.294 42.993,58.622 27.761,95.615 19.057,93.438 29.937,71.678 24.497,76.03 
	14.704,90.175 12.528,89.087 25.694,55.249 6,52.094 "/>
</svg>
