<?xml version="1.0" encoding="utf-8"?>
<!-- Generator: Adobe Illustrator 15.0.0, SVG Export Plug-In . SVG Version: 6.00 Build 0)  -->
<!DOCTYPE svg PUBLIC "-//W3C//DTD SVG 1.1//EN" "http://www.w3.org/Graphics/SVG/1.1/DTD/svg11.dtd">
<svg version="1.1" id="Layer_1" xmlns="http://www.w3.org/2000/svg" xmlns:xlink="http://www.w3.org/1999/xlink" x="0px" y="0px"
	 width="100px" height="100px" viewBox="0 0 100 100" enable-background="new 0 0 100 100" xml:space="preserve">
<path fill="none" stroke="#000000" d="M19.489,65.547c-1.59-5.646-12.513-1.393-10.352-9.22s20.685,4.485,26.362-5.218
	c5.677-9.704-18.022-42.538-9.311-48.273s24.496,34.222,34.103,34.143s8.22-34.083,28.014-35.281S77.293,43.153,85.26,46.084
	s11.701,0.346,11.57,11.381S73.898,77.501,81.898,79.9s9.47,12.492,1.535,12.846S70.392,68.525,63.945,76.812
	s7.344,11.887,6.153,17.888s-7.466,5.122-18.333,1.461C40.899,92.5,50.512,69.554,45.099,68.1s-9.891-0.719-12.4,5
	s0.073,24.522-10.164,23.062s0.364-12.204-2.436-15.933S1.761,76.596,1.83,68.848S21.079,71.193,19.489,65.547z"/>
</svg>
