<?xml version="1.0" encoding="utf-8"?>
<!-- Generator: Adobe Illustrator 15.0.0, SVG Export Plug-In . SVG Version: 6.00 Build 0)  -->
<!DOCTYPE svg PUBLIC "-//W3C//DTD SVG 1.1//EN" "http://www.w3.org/Graphics/SVG/1.1/DTD/svg11.dtd">
<svg version="1.1" id="Layer_1" xmlns="http://www.w3.org/2000/svg" xmlns:xlink="http://www.w3.org/1999/xlink" x="0px" y="0px"
	 width="100px" height="100px" viewBox="0 0 100 100" enable-background="new 0 0 100 100" xml:space="preserve">
<path fill="none" stroke="#000000" d="M2.112,47.413C2.5,37.5,31.847,47.143,31.274,39.621S4.463,39.205,4.382,29.352
	s28.719-0.845,35.019-5.549S50.81-0.125,60.676,2.2S46.859,37.131,54.58,37.615S63.485,0.901,76.093,2.2s-7.35,22.646-7.171,31.873
	s29.621,21.197,25.1,29.512s-16.137-12.396-17.929-3.541s24.629,16.288,20.318,25.972S78.125,75.041,71.312,76.57
	S18.378,106,8.5,95.899s27.941-26.656,24-35.2S1.723,57.326,2.112,47.413z"/>
</svg>
