<?xml version="1.0" encoding="utf-8"?>
<!-- Generator: Adobe Illustrator 15.0.0, SVG Export Plug-In . SVG Version: 6.00 Build 0)  -->
<!DOCTYPE svg PUBLIC "-//W3C//DTD SVG 1.1//EN" "http://www.w3.org/Graphics/SVG/1.1/DTD/svg11.dtd">
<svg version="1.1" id="Layer_1" xmlns="http://www.w3.org/2000/svg" xmlns:xlink="http://www.w3.org/1999/xlink" x="0px" y="0px"
	 width="100px" height="100px" viewBox="0 0 100 100" enable-background="new 0 0 100 100" xml:space="preserve">
<path fill="none" stroke="#000000" d="M34.936,4.306c-3.578,6.188,12.142,16.402,6.753,17.798S22.369,4.926,17.52,10.584
	s31.477,16.717,26.428,23.717S15.3,11.28,6,12.39s10.933,36.124,10.616,42.917S3.567,83.296,8.033,90.998S29.701,101.2,33.1,94.5
	s-9.761-7.31-9.48-17.055s14.89-16.833,21.685-16.489s-1.831,24.223,8.583,27.783s10.019-24.191,19.044-26.205
	s2.312,24.254,20.24,19.967s-19.858-46.159-21.665-55.88s24.391-8.763,23.492-16.942S38.514-1.883,34.936,4.306z"/>
</svg>
