<?xml version="1.0" encoding="utf-8"?>
<!-- Generator: Adobe Illustrator 15.0.0, SVG Export Plug-In . SVG Version: 6.00 Build 0)  -->
<!DOCTYPE svg PUBLIC "-//W3C//DTD SVG 1.1//EN" "http://www.w3.org/Graphics/SVG/1.1/DTD/svg11.dtd">
<svg version="1.1" id="Layer_1" xmlns="http://www.w3.org/2000/svg" xmlns:xlink="http://www.w3.org/1999/xlink" x="0px" y="0px"
	 width="100px" height="100px" viewBox="0 0 100 100" enable-background="new 0 0 100 100" xml:space="preserve">
<path fill="none" stroke="#000000" d="M3.939,38.899C15.3,29.748,17.185,52.5,22.443,50C27.701,47.5,2.34,12.569,9.521,7.134
	s47.31-0.936,47.645,8.615s-13.841,20.793-4.353,19.572s11.74-17.724,17.414-10.873S55.938,45.814,61.52,49.457
	s33.255,5.876,35.918,20.659S65.846,51.385,65.873,59.242s22.918,18.961,11.973,29.359s-37.154-25.047-42.45-19.574
	S27.306,101.3,15.803,97.3s12.208-24.419,9.253-32.51S-7.422,48.051,3.939,38.899z"/>
</svg>
