<?xml version="1.0" encoding="utf-8"?>
<!-- Generator: Adobe Illustrator 15.0.0, SVG Export Plug-In . SVG Version: 6.00 Build 0)  -->
<!DOCTYPE svg PUBLIC "-//W3C//DTD SVG 1.1//EN" "http://www.w3.org/Graphics/SVG/1.1/DTD/svg11.dtd">
<svg version="1.1" id="Layer_1" xmlns="http://www.w3.org/2000/svg" xmlns:xlink="http://www.w3.org/1999/xlink" x="0px" y="0px"
	 width="100px" height="100px" viewBox="0 0 100 100" enable-background="new 0 0 100 100" xml:space="preserve">
<path fill="none" stroke="#000000" d="M2.78,18.805C6.7,9.3,27.702,30.661,32.401,28.68s3.434-6.362,8.966-6.471
	s6.167,8.199,11.35,7.945S57.57,18.98,66.335,19.94s0.12,13.093,6.242,12.826S91.657,2.02,96.979,10.86S64.873,89.914,54.986,90.307
	s-2.012-38.352-11.349-31.779c-9.338,6.572,5.462,36.972-15.738,28.172s11.419-34.033,5.41-36.116
	C27.299,48.5,7.83,83.394,3.915,72.146s16.673-22.94,16.229-29.394S-1.14,28.311,2.78,18.805z"/>
</svg>
