<?xml version="1.0" encoding="utf-8"?>
<!-- Generator: Adobe Illustrator 15.0.0, SVG Export Plug-In . SVG Version: 6.00 Build 0)  -->
<!DOCTYPE svg PUBLIC "-//W3C//DTD SVG 1.1//EN" "http://www.w3.org/Graphics/SVG/1.1/DTD/svg11.dtd">
<svg version="1.1" id="Layer_1" xmlns="http://www.w3.org/2000/svg" xmlns:xlink="http://www.w3.org/1999/xlink" x="0px" y="0px"
	 width="100px" height="100px" viewBox="0 0 100 100" enable-background="new 0 0 100 100" xml:space="preserve">
<path fill="none" stroke="#000000" d="M28.707,44.189C26.5,34.899,0.308,37.541,1.704,24.62S58.5,27.5,63.3,23.7
	S62.848,3.631,69.374,2.865s12.344,4.198,12.135,11.916S70.701,26.899,76.9,29.5s15.441-12.399,18.82-1.6
	S51.643,44.201,55.271,51.95s25.62,5.661,32.797,14.213S98.5,90.499,82.5,92.899S60.911,63.79,53.1,66.5
	c-7.812,2.71-5.747,6.529-12.399,6.6s1.206-14.152-4.997-12.076S28.3,96.087,17.3,93.493s5.336-20.254,1.568-23.724
	S3.667,70.908,4.984,59.604C6.3,48.299,30.914,53.479,28.707,44.189z"/>
</svg>
