<?xml version="1.0" encoding="utf-8"?>
<!-- Generator: Adobe Illustrator 15.0.0, SVG Export Plug-In . SVG Version: 6.00 Build 0)  -->
<!DOCTYPE svg PUBLIC "-//W3C//DTD SVG 1.1//EN" "http://www.w3.org/Graphics/SVG/1.1/DTD/svg11.dtd">
<svg version="1.1" id="Layer_1" xmlns="http://www.w3.org/2000/svg" xmlns:xlink="http://www.w3.org/1999/xlink" x="0px" y="0px"
	 width="100px" height="100px" viewBox="0 0 100 100" enable-background="new 0 0 100 100" xml:space="preserve">
<path fill="none" stroke="#000000" d="M3.796,22.825C3.7,8.701,15.491,3.374,23.196,4.637S23.299,21.9,29.3,23.7
	s-4.508-9.8,8.446-13s2.346,27.575,14.55,27.888S50.215,8.349,58.357,3.425s18.936,10.15,23.039,10.913S84.591-7,95.945,5.85
	S68.217,37.275,68.059,48.288s37.685,21.388,25.463,38.8S70.021,71.674,59.3,71.5s-28.806,39.419-46.103,19.01
	s27.295-23.26,29.399-33.734C44.7,46.3,8.691,78.999,3.796,64.05s11.446-1.247,16.975-9.698S3.892,36.95,3.796,22.825z"/>
</svg>
