<?xml version="1.0" encoding="utf-8"?>
<!-- Generator: Adobe Illustrator 15.0.0, SVG Export Plug-In . SVG Version: 6.00 Build 0)  -->
<!DOCTYPE svg PUBLIC "-//W3C//DTD SVG 1.1//EN" "http://www.w3.org/Graphics/SVG/1.1/DTD/svg11.dtd">
<svg version="1.1" id="Layer_1" xmlns="http://www.w3.org/2000/svg" xmlns:xlink="http://www.w3.org/1999/xlink" x="0px" y="0px"
	 width="100px" height="100px" viewBox="0 0 100 100" enable-background="new 0 0 100 100" xml:space="preserve">
<path fill="none" stroke="#000000" d="M6.388,12.352C18.898,1.901,25.77,23.409,26.534,33.855s16.126,2.332,20.145-6.111
	S34.458,16.413,38.078,8.957s23.377-3.754,24.898,3.395S61.299,28.5,70.898,24.801S81.231-2.876,92.667,4.264
	s-4.173,57.548-9.769,62.437s-12.175,2.443-16.6,8.4c-4.424,5.957,9.691,20.946-8.801,22c-18.493,1.054-0.391-19.2-12.2-21.601
	c-11.81-2.4-6.2,30.601-24.4,22.2s16.4-20.2,9-29S11.64,85.336,4.269,74.719s7.688-10.118,13.48-23.835
	C23.542,37.167-6.122,22.803,6.388,12.352z"/>
</svg>
