<?xml version="1.0" encoding="utf-8"?>
<!-- Generator: Adobe Illustrator 15.0.0, SVG Export Plug-In . SVG Version: 6.00 Build 0)  -->
<!DOCTYPE svg PUBLIC "-//W3C//DTD SVG 1.1//EN" "http://www.w3.org/Graphics/SVG/1.1/DTD/svg11.dtd">
<svg version="1.1" id="Layer_1" xmlns="http://www.w3.org/2000/svg" xmlns:xlink="http://www.w3.org/1999/xlink" x="0px" y="0px"
	 width="100px" height="100px" viewBox="0 0 100 100" enable-background="new 0 0 100 100" xml:space="preserve">
<path fill="none" stroke="#000000" d="M5.004,42.366C11.3,36.3,25.272,61.357,33.286,59.729s19.36-28.442,15.287-37.235
	C44.5,13.7,30.192,7.594,38.746,2.947s26.713-0.665,36.033,7.644s-14.389,44.632-8.734,44.771s16.536-11.755,14.195,1.092
	s-25.857,3.806-27.299,9.826S90.9,72.299,89.5,84.699s-14.143,16.296-21.271,13.248s-7.694-25.094-12.012-17.471
	s9.55,14.535-2.184,16.379s-0.371-11.019-6.552-15.287s-33.887,9.699-36.034-2.185s19.944-5.102,17.798-10.593
	s-11.051-6.295-17.798-4.693S-1.292,48.433,5.004,42.366z"/>
</svg>
