<?xml version="1.0" encoding="utf-8"?>
<!-- Generator: Adobe Illustrator 15.0.0, SVG Export Plug-In . SVG Version: 6.00 Build 0)  -->
<!DOCTYPE svg PUBLIC "-//W3C//DTD SVG 1.1//EN" "http://www.w3.org/Graphics/SVG/1.1/DTD/svg11.dtd">
<svg version="1.1" id="Layer_1" xmlns="http://www.w3.org/2000/svg" xmlns:xlink="http://www.w3.org/1999/xlink" x="0px" y="0px"
	 width="100px" height="100px" viewBox="0 0 100 100" enable-background="new 0 0 100 100" xml:space="preserve">
<path fill="none" stroke="#000000" d="M10.41,1.302C19.701,0,17.015,35.557,31.858,41.529c14.843,5.972,0.434-22.509,2.638-30.469
	s9.413-11.452,14.909-6.506c5.496,4.946,6.88,12.62,4.588,25.483C51.701,42.9,54.184,45.06,63.742,42.18
	c9.559-2.88-16.762-27.856,9.748-27.868C100,14.3,102.51,99.395,86.105,94.548C69.7,89.701,82.9,78.901,72.7,80.301
	s0.766,19.801-13.317,17.5c-14.083-2.3-6.885-15.422-14.271-23.3c-7.384-7.88-20.817,23.632-30.114,22.216
	s-9.584-10.923-3.441-22.77C17.7,62.1,23.707,68.851,25.9,61.101c2.193-7.752-5.4-9.8-13-14.8C5.3,41.3,1.12,2.604,10.41,1.302z"/>
</svg>
