<?xml version="1.0" encoding="utf-8"?>
<!-- Generator: Adobe Illustrator 15.0.0, SVG Export Plug-In . SVG Version: 6.00 Build 0)  -->
<!DOCTYPE svg PUBLIC "-//W3C//DTD SVG 1.1//EN" "http://www.w3.org/Graphics/SVG/1.1/DTD/svg11.dtd">
<svg version="1.1" id="Layer_1" xmlns="http://www.w3.org/2000/svg" xmlns:xlink="http://www.w3.org/1999/xlink" x="0px" y="0px"
	 width="100px" height="100px" viewBox="0 0 100 100" enable-background="new 0 0 100 100" xml:space="preserve">
<path fill="none" stroke="#000000" d="M6.651,11.881C9.901,0,67.501,0,71.701,8.7c3.521,7.294-26.448,15.373-10.601,16.4
	C76.947,26.127,84.07,3.324,90.75,15.094C97.43,26.864,71.823,22.831,75.7,38.9c3.877,16.07,5.801-18.4,18.801-10.2
	c13,8.2-10.392,48.631-12.614,51.768C79.665,83.605,72.6,95.611,63.05,92.656c-9.549-2.956-0.548-17-11.35-21.355
	c-10.801-4.356-38.186,39.191-47.192,25.494C-4.498,83.098,5.699,77.699,19.5,71.3s8.417-18.292,6.209-29.946
	S3.401,23.762,6.651,11.881z"/>
</svg>
