<?xml version="1.0" encoding="utf-8"?>
<!-- Generator: Adobe Illustrator 15.0.0, SVG Export Plug-In . SVG Version: 6.00 Build 0)  -->
<!DOCTYPE svg PUBLIC "-//W3C//DTD SVG 1.1//EN" "http://www.w3.org/Graphics/SVG/1.1/DTD/svg11.dtd">
<svg version="1.1" id="Layer_1" xmlns="http://www.w3.org/2000/svg" xmlns:xlink="http://www.w3.org/1999/xlink" x="0px" y="0px"
	 width="100px" height="100px" viewBox="0 0 100 100" enable-background="new 0 0 100 100" xml:space="preserve">
<path fill="none" stroke="#000000" d="M64.284,80.544c-3.985,5.355,10.261,6.51,3.638,11.433s-16.117-17.272-22.37-14.375
	c-6.252,2.897-8.051,19.284-18.952,18.791S0.898,81.593,3.899,68.546s35.886-4.485,36.143-10.866S-0.77,45.481,1.465,35.69
	s54.731,4.229,53.583-5.481s-44.605-2.418-44.977-10.564s12.4-15.39,31.514-15.168s55.966,19.171,57.19,34.297
	S70.958,53.593,71.229,62.546s15.719,5.211,15.095,15.282S68.27,75.188,64.284,80.544z"/>
</svg>
