<?xml version="1.0" encoding="utf-8"?>
<!-- Generator: Adobe Illustrator 15.0.0, SVG Export Plug-In . SVG Version: 6.00 Build 0)  -->
<!DOCTYPE svg PUBLIC "-//W3C//DTD SVG 1.1//EN" "http://www.w3.org/Graphics/SVG/1.1/DTD/svg11.dtd">
<svg version="1.1" id="Layer_1" xmlns="http://www.w3.org/2000/svg" xmlns:xlink="http://www.w3.org/1999/xlink" x="0px" y="0px"
	 width="100px" height="100px" viewBox="0 0 100 100" enable-background="new 0 0 100 100" xml:space="preserve">
<path fill="none" stroke="#000000" d="M24.663,35.572c8.637,3.929,8.643,16.629,19.04,12.179C54.101,43.3,54.685,1.035,65.893,2.568
	S60.736,30.54,68.318,31.02S95.943,5.273,97.422,15.087S83.22,26.15,85.66,30.225s9.832-2.782,9.336,5.347
	s-26.234,9.74-25.465,15.934s22.958,25.263,15.764,30.729S63.584,51.017,61.042,56.059S85.781,90.567,73.5,96.5
	S62.082,67.484,56.191,71.992C50.3,76.5,51.553,99.235,40.427,98.168C29.3,97.101,34.25,79.912,25.875,75.406
	S3.244,79.303,1.622,66.302S16.026,31.643,24.663,35.572z"/>
</svg>
