<?xml version="1.0" encoding="utf-8"?>
<!-- Generator: Adobe Illustrator 15.0.0, SVG Export Plug-In . SVG Version: 6.00 Build 0)  -->
<!DOCTYPE svg PUBLIC "-//W3C//DTD SVG 1.1//EN" "http://www.w3.org/Graphics/SVG/1.1/DTD/svg11.dtd">
<svg version="1.1" id="Layer_1" xmlns="http://www.w3.org/2000/svg" xmlns:xlink="http://www.w3.org/1999/xlink" x="0px" y="0px"
	 width="100px" height="100px" viewBox="0 0 100 100" enable-background="new 0 0 100 100" xml:space="preserve">
<path fill="none" stroke="#000000" d="M35.771,50.479c4.528-9.18-23.844-40.424-17.358-46.402s29.064-2.042,29.375,6.79
	s-11.111,26.491,0,27.162S73.02-2.473,86.51,1.813s14.481,57.177,6.989,62.086S78.75,51.992,72.225,55.346s0.237,23.76-5.744,24.557
	s-9.38-8.586-10.681-3.395s13.843,19.516,2.671,21.504C47.299,100,44.913,76.782,37.106,77.641s-4.167,14.312-14.687,10.186
	s9.532-12.565,3.606-18.446s-25.142,10.1-23.634-4.19S31.243,59.659,35.771,50.479z"/>
</svg>
