<?xml version="1.0" encoding="utf-8"?>
<!-- Generator: Adobe Illustrator 15.0.0, SVG Export Plug-In . SVG Version: 6.00 Build 0)  -->
<!DOCTYPE svg PUBLIC "-//W3C//DTD SVG 1.1//EN" "http://www.w3.org/Graphics/SVG/1.1/DTD/svg11.dtd">
<svg version="1.1" id="Layer_1" xmlns="http://www.w3.org/2000/svg" xmlns:xlink="http://www.w3.org/1999/xlink" x="0px" y="0px"
	 width="100px" height="100px" viewBox="0 0 100 100" enable-background="new 0 0 100 100" xml:space="preserve">
<path fill="none" stroke="#000000" d="M1.792,13.146C6.1,0,25.72,34.892,29.01,30.796s-8.217-6.618-2.164-11.957
	s13.377,15.905,23.916,17.083S68.319,6.603,81.51,7.451s-2.749,26.682-2.279,34.165s15.453-10.008,19.361,1.138
	S80.761,54.686,79.23,64.393s8.676,5.346,7.973,12.526S38.83,101.75,37.665,91.725s19.313-22.49,15.374-28.357
	S42.58,85.372,32.54,80.336s19.45-15.75,14.805-26.193C42.7,43.7,15.194,82.029,6.347,72.364s11.519-15.362,14.236-24.713
	C23.3,38.299-2.516,26.292,1.792,13.146z"/>
</svg>
