<?xml version="1.0" encoding="utf-8"?>
<!-- Generator: Adobe Illustrator 15.0.0, SVG Export Plug-In . SVG Version: 6.00 Build 0)  -->
<!DOCTYPE svg PUBLIC "-//W3C//DTD SVG 1.1//EN" "http://www.w3.org/Graphics/SVG/1.1/DTD/svg11.dtd">
<svg version="1.1" id="Layer_1" xmlns="http://www.w3.org/2000/svg" xmlns:xlink="http://www.w3.org/1999/xlink" x="0px" y="0px"
	 width="100px" height="100px" viewBox="0 0 100 100" enable-background="new 0 0 100 100" xml:space="preserve">
<path fill="none" stroke="#000000" d="M16.299,27.938C17.1,22.7-4.998,5.727,5.951,2.013s20.633,22.095,25.591,25.591
	s13.823-2.355,15.021-6.341S39.663,0.1,52.682,0.9s1.193,22.098,5.006,26.149S65.699,10.9,74.3,14.1s-2.588,10.514-4.594,18.957
	S103.893,87.916,95.543,96.3s-26.997-35.695-29.62-33.647S70.549,86.312,63.9,91.9S58.051,76.62,50,74.1
	c-8.051-2.521-9.542,13.598-24.021,5.799S37.11,66.939,37.105,55.42C37.1,43.9,6.1,56.738,1.5,46.519S15.498,33.176,16.299,27.938z"
	/>
</svg>
