<?xml version="1.0" encoding="utf-8"?>
<!-- Generator: Adobe Illustrator 15.0.0, SVG Export Plug-In . SVG Version: 6.00 Build 0)  -->
<!DOCTYPE svg PUBLIC "-//W3C//DTD SVG 1.1//EN" "http://www.w3.org/Graphics/SVG/1.1/DTD/svg11.dtd">
<svg version="1.1" id="Layer_1" xmlns="http://www.w3.org/2000/svg" xmlns:xlink="http://www.w3.org/1999/xlink" x="0px" y="0px"
	 width="100px" height="100px" viewBox="0 0 100 100" enable-background="new 0 0 100 100" xml:space="preserve">
<path fill="none" stroke="#000000" d="M8.827,20.761c9.672-8.662,14.872,6.818,24.872,3.778S43.301,5.699,53.5,7.099
	s-1.52,12.487,8.54,12.444S90.701-5.691,97.9,3.704S51.354,34.21,59.727,40.255s17.24-8.626,26.606-6.091
	s16.166,48.334,7.366,54.135S51.271,44.926,52.785,57.312s29.793,29.244,17.354,34.115s-19.976-31.752-26.607-29.24
	S21.913,102.303,9.406,96.301s16.084-22.916,10.989-30.459S7.185,76.041,3.042,74.37S2.21,47.945,7.787,50.002
	s13.33,6.667,14.921-1.218S-0.845,29.422,8.827,20.761z"/>
</svg>
