<?xml version="1.0" encoding="utf-8"?>
<!-- Generator: Adobe Illustrator 15.0.0, SVG Export Plug-In . SVG Version: 6.00 Build 0)  -->
<!DOCTYPE svg PUBLIC "-//W3C//DTD SVG 1.1//EN" "http://www.w3.org/Graphics/SVG/1.1/DTD/svg11.dtd">
<svg version="1.1" id="Layer_1" xmlns="http://www.w3.org/2000/svg" xmlns:xlink="http://www.w3.org/1999/xlink" x="0px" y="0px"
	 width="100px" height="100px" viewBox="0 0 100 100" enable-background="new 0 0 100 100" xml:space="preserve">
<path fill="none" stroke="#000000" d="M42.701,33.384C43.3,23.1,5.816,9.345,15.058,2.423s19.38,12.387,27.311,11.832
	S41.594-0.066,51.547,1.317S62.381,25.942,69.24,21.221s26.736-13.314,28.748-3.317s-22.804,16-18.246,20.898
	S92.589,36.019,96.5,43.3c3.911,7.282,0.8,22-6.2,34.6s-27.032,25.013-32.116,17.406s10.201-30.571-5.642-34.389
	C36.7,57.101-0.722,78.322,1.789,57.711C4.3,37.1,42.103,43.667,42.701,33.384z"/>
</svg>
