<?xml version="1.0" encoding="utf-8"?>
<!-- Generator: Adobe Illustrator 15.0.0, SVG Export Plug-In . SVG Version: 6.00 Build 0)  -->
<!DOCTYPE svg PUBLIC "-//W3C//DTD SVG 1.1//EN" "http://www.w3.org/Graphics/SVG/1.1/DTD/svg11.dtd">
<svg version="1.1" id="Layer_1" xmlns="http://www.w3.org/2000/svg" xmlns:xlink="http://www.w3.org/1999/xlink" x="0px" y="0px"
	 width="100px" height="100px" viewBox="0 0 100 100" enable-background="new 0 0 100 100" xml:space="preserve">
<path fill="none" stroke="#000000" d="M2.939,27.142C6.9,14.9,25.031,35.008,27.966,26.054S8.416,18.372,11.5,6.701
	s18.023,1.068,25.605,7.213s4.053,16.528,12.624,19.757s41.134-22.618,45.703-9.794s-8.901,18.638-8.816,31.23
	s15.221,27.281,8.053,35.037s-34.16-43.331-42.764-36.888C43.3,59.7,89.15,89.47,80.9,95.7s-28.301-0.982-33.6-5.6
	c-5.3-4.617,2.826-15.708-6.387-18.454s-6.377,15.734-8.595,19.694s-21.383,11.391-27.999,2.197s29.465-30.901,25.823-41.369
	C26.5,41.701-1.022,39.384,2.939,27.142z"/>
</svg>
