<?xml version="1.0" encoding="utf-8"?>
<!-- Generator: Adobe Illustrator 15.0.0, SVG Export Plug-In . SVG Version: 6.00 Build 0)  -->
<!DOCTYPE svg PUBLIC "-//W3C//DTD SVG 1.1//EN" "http://www.w3.org/Graphics/SVG/1.1/DTD/svg11.dtd">
<svg version="1.1" id="Layer_1" xmlns="http://www.w3.org/2000/svg" xmlns:xlink="http://www.w3.org/1999/xlink" x="0px" y="0px"
	 width="100px" height="100px" viewBox="0 0 100 100" enable-background="new 0 0 100 100" xml:space="preserve">
<path fill="none" stroke="#000000" d="M1,21.56C1.701,8.501,30.271,42.981,42.386,44.541S13.513,26.739,22.707,11.42
	s16.366,7.879,26.88,10.08S85.884-2.363,91.492,6.369S81.834,27.099,81.268,35.9s11.025-10.119,14.879,8.641
	s-8.36,7.761-11.046,13.96s22.052,35.702,9.126,38.601S75.475,64.938,71.188,65.42s15.926,23.039-1.681,30.96
	S61.5,77.582,58.9,68.941S31.313,93.699,14.307,88.7S41.952,59.91,36.74,53.299S0.299,34.619,1,21.56z"/>
</svg>
