<?xml version="1.0" encoding="utf-8"?>
<!-- Generator: Adobe Illustrator 15.0.0, SVG Export Plug-In . SVG Version: 6.00 Build 0)  -->
<!DOCTYPE svg PUBLIC "-//W3C//DTD SVG 1.1//EN" "http://www.w3.org/Graphics/SVG/1.1/DTD/svg11.dtd">
<svg version="1.1" id="Layer_1" xmlns="http://www.w3.org/2000/svg" xmlns:xlink="http://www.w3.org/1999/xlink" x="0px" y="0px"
	 width="100px" height="100px" viewBox="0 0 100 100" enable-background="new 0 0 100 100" xml:space="preserve">
<path fill="none" stroke="#000000" d="M37.03,32.249c1.27-11.348-17.845,1.148-23.088-9.3S46.372,0.815,53.336,2.158
	s0.201,8.729,3.282,12.036S79.05-1.809,83.975,4.346S74.899,23.699,75.699,29.1s19.625-5.053,20.312,8.074
	S78.329,47.05,76.314,55.775s28.42,15.189,18.603,27.357S74.409,66.895,68.654,71.098s4.979,13.787-2.188,19.695
	S52.393,73.029,45.346,78.865C38.299,84.701,56.895,90.958,50,95.901c-6.894,4.943-22.717,1.184-26.209-5.108
	S9.101,104.272,3,91.887s30.791-23.092,29.545-30.639S5.857,76.272,5.078,59.387S35.76,43.597,37.03,32.249z"/>
</svg>
