<?xml version="1.0" encoding="utf-8"?>
<!-- Generator: Adobe Illustrator 15.0.0, SVG Export Plug-In . SVG Version: 6.00 Build 0)  -->
<!DOCTYPE svg PUBLIC "-//W3C//DTD SVG 1.1//EN" "http://www.w3.org/Graphics/SVG/1.1/DTD/svg11.dtd">
<svg version="1.1" id="Layer_1" xmlns="http://www.w3.org/2000/svg" xmlns:xlink="http://www.w3.org/1999/xlink" x="0px" y="0px"
	 width="100px" height="100px" viewBox="0 0 100 100" enable-background="new 0 0 100 100" xml:space="preserve">
<path fill="none" stroke="#000000" d="M2.144,36.624C9.901,23.7,18.708,40.98,30.304,42.04S8.313,30.49,17.307,19.295
	s19.508,9.207,25.451,6.606S32.73,0.198,48.716,3.049s7.775,24.602,14.08,30.326S74.079,3.526,88.79,11.713
	s-6.509,23.731-6.499,34.659s13.916,1.696,15.163,18.412s-12.589,0.23-17.871,6.173s11.066,25.895-2.708,26.318
	s-6.281-33.738-17.328-34.657c-11.046-0.919,8.002,36.479-15.922,36.28c-23.924-0.199-0.99-18.302-4.657-25.45
	s-14.55,30.639-31.409,22.745s31.778-31.619,28.16-41.156C32.101,45.5-5.613,49.548,2.144,36.624z"/>
</svg>
