<?xml version="1.0" encoding="utf-8"?>
<!-- Generator: Adobe Illustrator 15.0.0, SVG Export Plug-In . SVG Version: 6.00 Build 0)  -->
<!DOCTYPE svg PUBLIC "-//W3C//DTD SVG 1.1//EN" "http://www.w3.org/Graphics/SVG/1.1/DTD/svg11.dtd">
<svg version="1.1" id="Layer_1" xmlns="http://www.w3.org/2000/svg" xmlns:xlink="http://www.w3.org/1999/xlink" x="0px" y="0px"
	 width="100px" height="100px" viewBox="0 0 100 100" enable-background="new 0 0 100 100" xml:space="preserve">
<path fill="none" stroke="#000000" d="M23.944,46.378c-0.645-7.677-24.192-7.471-22.018-17.074s26.859,14.776,30.616,5.887
	s-31.704-9.1-22.373-21.195s7.686,2.625,15.308,7.065s20.828-19.92,30.025-18.84s4.406,18.15,12.798,22.08s4.368-19.59,19.584-5.595
	S75.196,37.185,75.048,46.143s19.562,0.638,22.257,12.598s-32.189,1.09-41.098,8.125c-8.908,7.035,4.042,27.475-20.133,29.555
	s12.128-21.575,1.177-34.147s-5.612,26.918-27.082,22.373S24.588,54.055,23.944,46.378z"/>
</svg>
