<?xml version="1.0" encoding="utf-8"?>
<!-- Generator: Adobe Illustrator 15.0.0, SVG Export Plug-In . SVG Version: 6.00 Build 0)  -->
<!DOCTYPE svg PUBLIC "-//W3C//DTD SVG 1.1//EN" "http://www.w3.org/Graphics/SVG/1.1/DTD/svg11.dtd">
<svg version="1.1" id="left-image" xmlns="http://www.w3.org/2000/svg" xmlns:xlink="http://www.w3.org/1999/xlink" x="0px" y="0px"
	 width="100px" height="100px" viewBox="0 0 100 100" enable-background="new 0 0 100 100" xml:space="preserve">
<path fill="none" stroke="#000000" d="M90.062,58.668C85.5,70.167,56.742,59.47,54.5,62.833c-2.243,3.362,2,8.667,4.993,14.815
	c2.071,4.254-27.641-13.109-33.993-13.481c-6.352-0.374-6.811,19.726-12.79,19.352S0.994,61.838,2.247,52.502
	C3.5,43.167,28.779,53.139,29.9,49.831c1.121-3.308-15.695-13.771-13.827-19.375c1.869-5.605,37.329-17.946,42.394-15.513
	s-5.024,22.612,0.955,24.107c5.978,1.495,24.288-15.694,34.752-15.321C104.636,24.102,94.623,47.169,90.062,58.668z"/>
</svg>
