<?xml version="1.0" encoding="utf-8"?>
<!-- Generator: Adobe Illustrator 15.0.0, SVG Export Plug-In . SVG Version: 6.00 Build 0)  -->
<!DOCTYPE svg PUBLIC "-//W3C//DTD SVG 1.1//EN" "http://www.w3.org/Graphics/SVG/1.1/DTD/svg11.dtd">
<svg version="1.1" id="left-image" xmlns="http://www.w3.org/2000/svg" xmlns:xlink="http://www.w3.org/1999/xlink" x="0px" y="0px"
	 width="100px" height="100px" viewBox="0 0 100 100" enable-background="new 0 0 100 100" xml:space="preserve">
<path fill="none" stroke="#000000" d="M65.818,49.477c-9.747,5.811,38.104,5.11,27.564,24.728
	c-12.084,22.491-35.835-4.341-39.584-0.967s0.75,15.368-2.438,20.618c-3.187,5.247-13.448,3.103-20.195-1.022
	c-6.748-4.123,5.667-15.333-0.235-19.22c-4.2-2.766-27.766,2.694-27.757-5.25c0.017-14.431,12.226-11.464,14.85-19.336
	C20.648,41.155,3.69,34.767,3.192,27.505c-0.309-4.499,3.691-7.716,5.623-9.372c7.69-6.59,19.118,7.873,25.491,9.747
	C40.678,29.754,46.575,12.822,48.5,7.043c1.924-5.779,19.815-0.594,23.241,6.372c3.425,6.967-13.444,17.088-11.57,21.586
	c1.875,4.498,33.107-12.227,35.612-2.624C101.405,53.933,69.895,47.046,65.818,49.477z"/>
</svg>
